STARTFONT 2.1
COMMENT
COMMENT Converted from OpenType font "uvn_baisau.ttf" by "otf2bdf 3.0".
COMMENT
FONT -FreeType-UVN Bai Sau-Bold-R-Normal--39-280-100-100-P-192-ISO10646-1
SIZE 28 100 100
FONTBOUNDINGBOX 54 54 -6 -10
STARTPROPERTIES 19
FOUNDRY "FreeType"
FAMILY_NAME "UVN Bai Sau"
WEIGHT_NAME "Bold"
SLANT "R"
SETWIDTH_NAME "Normal"
ADD_STYLE_NAME ""
PIXEL_SIZE 39
POINT_SIZE 280
RESOLUTION_X 100
RESOLUTION_Y 100
SPACING "P"
AVERAGE_WIDTH 192
CHARSET_REGISTRY "ISO10646"
CHARSET_ENCODING "1"
FONT_ASCENT 43
FONT_DESCENT 10
COPYRIGHT "(c) Copyright 2001 by Tom Truong. All Rights Reserved"
_OTF_FONTFILE "uvn_baisau.ttf"
_OTF_PSNAME "UVNBaiSauBold"
ENDPROPERTIES
CHARS 383
STARTCHAR 0020
ENCODING 32
SWIDTH 257 0
DWIDTH 10 0
BBX 0 0 0 0
BITMAP
ENDCHAR
STARTCHAR 0021
ENCODING 33
SWIDTH 308 0
DWIDTH 12 0
BBX 8 28 2 -1
BITMAP
7F
7F
7F
7F
7F
7F
7F
7F
7F
7F
7F
7F
7F
7F
7F
7F
7F
7F
00
00
3E
7F
7F
FF
7F
7F
3E
08
ENDCHAR
STARTCHAR 0022
ENCODING 34
SWIDTH 334 0
DWIDTH 13 0
BBX 11 10 1 17
BITMAP
F9E0
F9E0
F9E0
F9E0
F9E0
F9E0
F9E0
F9E0
F9E0
F9E0
ENDCHAR
STARTCHAR 0023
ENCODING 35
SWIDTH 745 0
DWIDTH 29 0
BBX 28 28 1 0
BITMAP
000F87C0
001F07C0
001F0F80
001F0F80
003E0F00
003E1F00
003E1F00
007C1E00
0FFFFFF0
1FFFFFF0
1FFFFFE0
1FFFFFE0
00F07C00
01F07800
01F0F800
01E0F800
7FFFFF80
7FFFFF80
FFFFFF80
FFFFFF00
FFFFFF00
0F83C000
0F87C000
0F07C000
1F078000
1F0F8000
1E0F8000
3E0F0000
ENDCHAR
STARTCHAR 0024
ENCODING 36
SWIDTH 540 0
DWIDTH 21 0
BBX 15 31 4 -2
BITMAP
0380
0380
0380
0FFC
3FFC
7FFC
FFFC
FFFC
FC00
FC00
FE00
7F80
7FC0
3FE0
1FF8
0FFC
03FC
01FE
00FE
007E
01FE
FFFE
FFFE
FFFC
FFF8
FFE0
0380
0380
0380
0380
0380
ENDCHAR
STARTCHAR 0025
ENCODING 37
SWIDTH 874 0
DWIDTH 34 0
BBX 32 27 1 0
BITMAP
0FC003C0
1FF00780
3FF80780
7FFC0F00
7C7C1F00
F83C1E00
F83C3C00
F83C3C00
783C7800
7EFCF000
7FF8F000
3FF9E000
1FF3E000
07C3C3E0
00078FF8
00079FFC
000F1FFE
001E3F3E
001E3C1E
003C3C1F
007C3C1F
00783C1F
00F03E3E
00F01FFE
01E01FFC
03E00FF8
03C003E0
ENDCHAR
STARTCHAR 0026
ENCODING 38
SWIDTH 745 0
DWIDTH 29 0
BBX 27 27 2 0
BITMAP
0FFFE000
1FFFE000
1FFFE000
3FFFE000
3FFFE000
1FFFE000
1FE00000
0FF00600
0FF80F00
1FFC3F00
3FFC3F80
7FFE3F80
7FFF1F80
FF7F9FC0
FE3FDFC0
FE1FDFC0
FE1FFF80
FE0FFF80
FE07FF80
FF03FF00
7F83FF00
7FFFFE00
3FFFFF00
3FFFFF80
0FFFFFC0
07FFFFC0
01FF9FE0
ENDCHAR
STARTCHAR 0027
ENCODING 39
SWIDTH 180 0
DWIDTH 7 0
BBX 5 10 1 17
BITMAP
F8
F8
F8
F8
F8
F8
F8
F8
F8
F8
ENDCHAR
STARTCHAR 0028
ENCODING 40
SWIDTH 385 0
DWIDTH 15 0
BBX 11 36 3 -8
BITMAP
0180
03C0
07E0
0FC0
0F80
1F80
3F00
3E00
3E00
7C00
7C00
7C00
F800
F800
F800
F800
F800
F800
F800
F800
F800
F800
F800
7C00
7C00
7C00
3E00
3E00
3F00
1F80
0FC0
0FC0
07E0
03E0
01C0
0080
ENDCHAR
STARTCHAR 0029
ENCODING 41
SWIDTH 385 0
DWIDTH 15 0
BBX 12 36 1 -8
BITMAP
3000
7800
FC00
7E00
7F00
3F00
1F80
0F80
0FC0
07C0
07C0
03E0
03E0
03E0
03E0
01E0
01E0
01F0
01F0
01E0
01E0
03E0
03E0
03E0
03E0
07C0
07C0
0FC0
0F80
1F00
3F00
7E00
FC00
7C00
3800
1000
ENDCHAR
STARTCHAR 002A
ENCODING 42
SWIDTH 488 0
DWIDTH 19 0
BBX 13 13 3 14
BITMAP
0F80
4790
6730
F778
FBF8
FFF8
0700
7FF8
FBF8
F778
6730
4710
0F80
ENDCHAR
STARTCHAR 002B
ENCODING 43
SWIDTH 822 0
DWIDTH 32 0
BBX 23 23 5 0
BITMAP
007800
007800
007800
007800
007800
007800
007800
007800
007800
FFFFFE
FFFFFE
FFFFFE
FFFFFE
FFFFFE
007800
007800
007800
007800
007800
007800
007800
007800
007800
ENDCHAR
STARTCHAR 002C
ENCODING 44
SWIDTH 257 0
DWIDTH 10 0
BBX 8 12 1 -6
BITMAP
3F
3F
7F
7E
7E
7E
7C
FC
F8
F8
F8
F0
ENDCHAR
STARTCHAR 002D
ENCODING 45
SWIDTH 308 0
DWIDTH 12 0
BBX 11 5 1 7
BITMAP
FFE0
FFE0
FFE0
FFE0
FFE0
ENDCHAR
STARTCHAR 002E
ENCODING 46
SWIDTH 257 0
DWIDTH 10 0
BBX 7 8 2 -1
BITMAP
7C
FE
FE
FE
FE
FE
7C
10
ENDCHAR
STARTCHAR 002F
ENCODING 47
SWIDTH 257 0
DWIDTH 10 0
BBX 13 32 -1 -4
BITMAP
0078
0078
0070
0070
00F0
00E0
00E0
01E0
01C0
01C0
03C0
0380
0380
0780
0780
0700
0F00
0F00
0E00
1E00
1E00
1C00
1C00
3C00
3800
3800
7800
7000
7000
F000
E000
E000
ENDCHAR
STARTCHAR 0030
ENCODING 48
SWIDTH 540 0
DWIDTH 21 0
BBX 20 28 1 0
BITMAP
00F000
07FE00
1FFF00
3FFFC0
3FFFC0
7FFFE0
7F9FE0
FF0FF0
FE07F0
FE07F0
FE07F0
FE07F0
FE07F0
FE07F0
FE07F0
FE07F0
FE07F0
FE07F0
FE07F0
FE07F0
FE07F0
FF0FF0
7FFFE0
7FFFE0
3FFFC0
1FFF80
0FFF00
07FE00
ENDCHAR
STARTCHAR 0031
ENCODING 49
SWIDTH 540 0
DWIDTH 21 0
BBX 11 27 5 0
BITMAP
FFE0
FFE0
FFE0
FFE0
FFE0
FFE0
0FE0
0FE0
0FE0
0FE0
0FE0
0FE0
0FE0
0FE0
0FE0
0FE0
0FE0
0FE0
0FE0
0FE0
0FE0
0FE0
0FE0
0FE0
0FE0
0FE0
0FE0
ENDCHAR
STARTCHAR 0032
ENCODING 50
SWIDTH 540 0
DWIDTH 21 0
BBX 18 28 2 0
BITMAP
01E000
0FFC00
1FFE00
3FFF00
7FFF80
FFFF80
FF3F80
FE1FC0
FC1FC0
FC1FC0
FE1F80
FF3F80
7E7F80
7CFF00
39FE00
13FE00
07FC00
0FF800
1FF000
3FE000
7FC000
7F8000
FFFFC0
FFFFC0
FFFFC0
FFFFC0
FFFFC0
7FFFC0
ENDCHAR
STARTCHAR 0033
ENCODING 51
SWIDTH 540 0
DWIDTH 21 0
BBX 18 27 2 0
BITMAP
FFFE00
FFFF00
FFFF80
FFFF80
FFFF80
FFFF80
007F00
00FF00
01FE00
03F800
07F000
0FFC00
0FFF00
0FFF80
0FFF80
003FC0
001FC0
000FC0
000FC0
001FC0
003FC0
FFFFC0
FFFF80
FFFF80
FFFF00
FFFE00
FFF800
ENDCHAR
STARTCHAR 0034
ENCODING 52
SWIDTH 540 0
DWIDTH 21 0
BBX 20 27 1 1
BITMAP
00FE80
00FC80
01FD80
01FB80
03F380
03F780
07E780
0FEF80
0FCF80
1FDF80
1F9F80
3F1F80
3F1F80
7E1F80
7E1F80
FC1FF0
FFFFF0
FFFFF0
FFFFF0
7FFFF0
3FFFF0
0FFFF0
001F80
001F80
001F80
001F80
001F80
ENDCHAR
STARTCHAR 0035
ENCODING 53
SWIDTH 540 0
DWIDTH 21 0
BBX 18 27 2 0
BITMAP
7FFF00
7FFF00
7FFF00
7FFF00
7FFF00
7FFF00
7E0000
7E0000
7E0000
7FFC00
7FFE00
7FFF00
7FFF80
7FFF80
7FFFC0
001FC0
001FC0
000FC0
000FC0
001FC0
003FC0
FFFFC0
FFFF80
FFFF80
FFFF00
FFFC00
FFF000
ENDCHAR
STARTCHAR 0036
ENCODING 54
SWIDTH 540 0
DWIDTH 21 0
BBX 20 27 1 0
BITMAP
00FF00
00FE00
01FE00
01FC00
03F800
07F800
07F000
0FF000
0FE000
1FEE00
1FCF80
3F9FC0
3F9FE0
7F3FE0
7F1FF0
7E07F0
FE07F0
FE07F0
FE07F0
FE07F0
FF0FF0
7FFFE0
7FFFE0
3FFFC0
1FFF80
0FFF00
07FE00
ENDCHAR
STARTCHAR 0037
ENCODING 55
SWIDTH 540 0
DWIDTH 21 0
BBX 18 27 2 0
BITMAP
FFFF00
FFFF80
FFFFC0
FFFFC0
FFFFC0
FFFFC0
001F80
003F80
003F80
003F00
007F00
007F00
3FFF80
3FFF80
3FFF80
3FFF80
01FC00
01FC00
01FC00
03F800
03F800
03F800
07F000
07F000
07F000
0FE000
0FE000
ENDCHAR
STARTCHAR 0038
ENCODING 56
SWIDTH 540 0
DWIDTH 21 0
BBX 20 28 1 0
BITMAP
006000
07FE00
0FFF00
1FFF80
3FFFC0
7FFFC0
7F0FE0
7E07E0
7E07E0
7E07C0
3F0FC0
1FFF80
1FFF80
0FFF00
3FFFC0
7FFFE0
7F0FE0
FE07F0
FE07F0
FC07F0
FE07F0
FE07F0
7FFFE0
7FFFE0
7FFFC0
3FFFC0
1FFF00
07FE00
ENDCHAR
STARTCHAR 0039
ENCODING 57
SWIDTH 540 0
DWIDTH 21 0
BBX 20 28 1 0
BITMAP
00F000
07FE00
0FFF00
1FFF80
3FFFC0
7FFFE0
7FFFE0
FF0FE0
FE07F0
FE07F0
FE07F0
FE07F0
FF07E0
FFCFE0
7FCFE0
7F9FC0
3FBFC0
1F3F80
077F80
007F00
00FF00
00FE00
01FC00
03FC00
03F800
07F800
07F000
0FF000
ENDCHAR
STARTCHAR 003A
ENCODING 58
SWIDTH 308 0
DWIDTH 12 0
BBX 8 19 2 -1
BITMAP
3C
7E
FF
FF
FF
FF
7E
3C
00
00
00
00
3C
7E
FF
FF
FF
7E
7E
ENDCHAR
STARTCHAR 003B
ENCODING 59
SWIDTH 308 0
DWIDTH 12 0
BBX 9 25 1 -6
BITMAP
0E00
3F00
3F80
3F80
3F80
3F80
3F00
0E00
0000
0000
0000
0000
0000
3F00
3F00
3F00
7E00
7E00
7E00
7C00
7C00
FC00
F800
F800
F800
ENDCHAR
STARTCHAR 003C
ENCODING 60
SWIDTH 822 0
DWIDTH 32 0
BBX 22 22 5 0
BITMAP
000004
00001C
0000FC
0003FC
001FFC
007FF8
01FFC0
0FFF00
3FF800
FFE000
FF0000
FC0000
FF8000
FFE000
3FFC00
07FF00
01FFE0
007FF8
000FFC
0003FC
00007C
00001C
ENDCHAR
STARTCHAR 003D
ENCODING 61
SWIDTH 822 0
DWIDTH 32 0
BBX 23 13 5 5
BITMAP
FFFFFE
FFFFFE
FFFFFE
FFFFFE
000000
000000
000000
000000
FFFFFE
FFFFFE
FFFFFE
FFFFFE
FFFFFE
ENDCHAR
STARTCHAR 003E
ENCODING 62
SWIDTH 822 0
DWIDTH 32 0
BBX 22 23 5 0
BITMAP
800000
F00000
FC0000
FF8000
FFE000
3FF800
0FFF00
01FFC0
007FF8
000FFC
0003FC
0000FC
0003FC
001FFC
007FF0
03FFC0
0FFE00
7FF800
FFE000
FF0000
FC0000
E00000
800000
ENDCHAR
STARTCHAR 003F
ENCODING 63
SWIDTH 514 0
DWIDTH 20 0
BBX 18 28 1 -1
BITMAP
01E000
0FFC00
3FFE00
3FFF00
7FFF80
FFFF80
FF7FC0
FC1FC0
0C1FC0
001FC0
001FC0
07FFC0
07FF80
07FF80
07FF00
07FE00
07F800
07F000
07F000
000000
000000
03E000
07F000
07F000
07F800
07F000
07F000
03E000
ENDCHAR
STARTCHAR 0040
ENCODING 64
SWIDTH 977 0
DWIDTH 38 0
BBX 35 34 2 -6
BITMAP
0007FF8000
003FFFF000
00FFFFF800
01FF03FE00
03F0007F00
07C0001F80
0F80000780
1F000007C0
3E000003C0
3C03F1E1E0
780FFBC1E0
781FFFC1E0
F03F0FC1E0
F03E0FC1E0
F07C0781E0
F07C0781E0
F0F80F81E0
E0F80F81E0
E0F80F03C0
F0F80F03C0
F0F81F07C0
F0F83F0F80
F07C7FBF00
F87FFFFE00
783FEFFC00
7C1F83F000
3E00000000
1F00000800
1F80001C00
0FE000FE00
03FF9FF800
01FFFFF000
007FFFC000
000FFC0000
ENDCHAR
STARTCHAR 0041
ENCODING 65
SWIDTH 617 0
DWIDTH 24 0
BBX 21 28 2 0
BITMAP
00F000
07FE00
0FFF80
1FFFC0
3FFFC0
7FFFE0
7FFFF0
FF0FF0
FE07F0
FE03F0
FE03F0
FE03F8
FEFFF8
FEFFF8
FEFFF8
FEFFF8
FEFFF8
FEFFF8
FE03F8
FE03F8
FE03F8
FE03F8
FE03F8
FE03F8
FE03F8
FE03F8
FE03F8
FE03F8
ENDCHAR
STARTCHAR 0042
ENCODING 66
SWIDTH 565 0
DWIDTH 22 0
BBX 20 28 2 0
BITMAP
01F000
07FC00
1FFF00
3FFF80
7FFFC0
7FFFC0
FF1FC0
FE0FE0
FE0FE0
FE0FE0
FE1FC0
FEFFC0
FEFF80
FEFF00
FEFF80
FEFFE0
FEFFE0
FE0FF0
FE07F0
FE07F0
FE07F0
FE0FF0
FEFFF0
FEFFE0
FEFFE0
FEFFC0
FEFF80
FEFC00
ENDCHAR
STARTCHAR 0043
ENCODING 67
SWIDTH 488 0
DWIDTH 19 0
BBX 18 27 1 0
BITMAP
003FC0
01FFC0
03FFC0
0FFFC0
1FFFC0
1FFFC0
3FF800
7FC000
7F8000
7F0000
FF0000
FE0000
FE0000
FE0000
FE0000
FE0000
FF0000
7F0000
7F8000
7FE000
3FFE00
1FFFC0
0FFFC0
07FFC0
03FFC0
00FFC0
001FC0
ENDCHAR
STARTCHAR 0044
ENCODING 68
SWIDTH 617 0
DWIDTH 24 0
BBX 22 27 2 0
BITMAP
FFF000
FFFE00
FFFF00
FFFF80
FFFFC0
FFFFE0
FE7FF0
FE0FF8
FE07F8
FE03F8
FE03FC
FE01FC
FE01FC
FE01FC
FE01FC
FE01FC
FE03FC
FE03F8
FE07F8
FE1FF0
FEFFF0
FEFFE0
FEFFC0
FEFF80
FEFF00
FEFE00
FEE000
ENDCHAR
STARTCHAR 0045
ENCODING 69
SWIDTH 514 0
DWIDTH 20 0
BBX 18 27 1 0
BITMAP
003FC0
01FFC0
03FFC0
0FFFC0
1FFFC0
1FFFC0
3FF000
7FC000
7F8000
7F0000
FFFFC0
FFFFC0
FFFFC0
FFFFC0
FFFFC0
FFFFC0
FF0000
7F0000
7F8000
7FC000
3FF800
1FFFC0
0FFFC0
07FFC0
03FFC0
00FFC0
001FC0
ENDCHAR
STARTCHAR 0046
ENCODING 70
SWIDTH 437 0
DWIDTH 17 0
BBX 14 27 2 0
BITMAP
07FC
1FFC
3FFC
7FFC
7FFC
FFFC
FF00
FE00
FE00
FE00
FE00
FFFC
FFFC
FFFC
FFFC
FFFC
FFFC
FE00
FE00
FE00
FE00
FE00
FE00
FE00
FE00
FE00
FE00
ENDCHAR
STARTCHAR 0047
ENCODING 71
SWIDTH 771 0
DWIDTH 30 0
BBX 28 28 1 0
BITMAP
000F8000
007FF000
01FFFC00
07FFFF00
0FFFFF80
1FFFFF00
3FFFFE00
3FE07C00
7FC01800
7F800000
7F000000
FF03FFF0
FE03FFF0
FE03FFF0
FE03FFF0
FE03FFF0
FE03FFF0
FF000FE0
7F000FE0
7F801FE0
7FC03FC0
3FF8FFC0
1FFFFF80
1FFFFF80
0FFFFF00
07FFFE00
01FFF800
007FE000
ENDCHAR
STARTCHAR 0048
ENCODING 72
SWIDTH 617 0
DWIDTH 24 0
BBX 21 27 2 0
BITMAP
FE03F8
FE03F8
FE03F8
FE03F8
FE03F8
FE03F8
FE03F8
FE03F8
FE03F8
FFFFF8
FFFFF8
FFFFF8
FFFFF8
FFFFF8
FFFFF8
FFFFF8
FE03F8
FE03F8
FE03F8
FE03F8
FE03F8
FE03F8
FE03F8
FE03F8
FE03F8
FE03F8
FE03F8
ENDCHAR
STARTCHAR 0049
ENCODING 73
SWIDTH 257 0
DWIDTH 10 0
BBX 7 27 2 0
BITMAP
FE
FE
FE
FE
FE
FE
FE
FE
FE
FE
FE
FE
FE
FE
FE
FE
FE
FE
FE
FE
FE
FE
FE
FE
FE
FE
FE
ENDCHAR
STARTCHAR 004A
ENCODING 74
SWIDTH 411 0
DWIDTH 16 0
BBX 15 27 0 0
BITMAP
00FE
00FE
00FE
00FE
00FE
00FE
00FE
00FE
00FE
00FE
00FE
00FE
00FE
00FE
00FE
00FE
00FE
00FE
00FE
01FC
03FC
FFFC
FFFC
FFF8
FFF0
FFE0
FF80
ENDCHAR
STARTCHAR 004B
ENCODING 75
SWIDTH 591 0
DWIDTH 23 0
BBX 21 27 2 0
BITMAP
FE03F8
FE07F8
FE07F0
FE0FF0
FE0FE0
FE1FE0
FE1FC0
FE3FC0
FE7F80
FFFF80
FFFF00
FFFF00
FFFFC0
FFFFE0
FFFFE0
FFFFE0
FE0FF0
FE07F0
FE07F0
FE07F0
FE07F0
FE07F0
FE07F0
FE07F0
FE07F0
FE07F0
FE07F0
ENDCHAR
STARTCHAR 004C
ENCODING 76
SWIDTH 411 0
DWIDTH 16 0
BBX 15 27 2 0
BITMAP
FE00
FE00
FE00
FE00
FE00
FE00
FE00
FE00
FE00
FE00
FE00
FE00
FE00
FE00
FE00
FE00
FE00
FE00
FE00
FE00
FF00
FFFE
7FFE
7FFE
3FFE
1FFE
07FE
ENDCHAR
STARTCHAR 004D
ENCODING 77
SWIDTH 822 0
DWIDTH 32 0
BBX 31 28 1 0
BITMAP
01000300
0FE00FC0
0FF01FE0
1FF03FF0
1FF03FF0
1FF83FF0
3FF83FF0
3FF87DF0
3FF87DF0
3F7C7DF8
3F7C7DF8
3F7CFDF8
3E7CF9F8
7E7EF9F8
7E3EF9F8
7E3EF9F8
7E3FF8FC
7E3FF0FC
7E3FF0FC
7E1FF0FC
FE1FF0FC
FE1FE0FC
FE1FE0FC
FC0FE0FC
FC0FE0FE
FC0FC0FE
FC07C0FE
FC07807E
ENDCHAR
STARTCHAR 004E
ENCODING 78
SWIDTH 642 0
DWIDTH 25 0
BBX 22 28 2 0
BITMAP
180000
7E01FC
FF01FC
FF81FC
FF81FC
FFC1FC
FFC1FC
FFE1FC
FFE1FC
FFF1FC
FFF9FC
FDF9FC
FDFDFC
FCFDFC
FCFFFC
FC7FFC
FC7EFC
FE3FFC
FE3FFC
FE1FFC
FE1FFC
FE0FFC
FE07FC
FE07FC
FE03FC
FE03FC
FE01F8
FE00F8
ENDCHAR
STARTCHAR 004F
ENCODING 79
SWIDTH 771 0
DWIDTH 30 0
BBX 28 28 1 0
BITMAP
000F0000
00FFF000
01FFFC00
07FFFE00
0FFFFF00
1FFFFF80
3FFFFFC0
3FF07FC0
7FC03FE0
7F801FE0
7F000FE0
FF0007F0
FE0007F0
FE0007F0
FE0007F0
FE0007F0
FE0007F0
FF000FF0
7F000FE0
7F801FE0
7FC03FE0
3FF0FFC0
1FFFFF80
1FFFFF80
0FFFFF00
07FFFE00
01FFF800
007FE000
ENDCHAR
STARTCHAR 0050
ENCODING 80
SWIDTH 565 0
DWIDTH 22 0
BBX 19 28 2 0
BITMAP
00F000
07FE00
1FFF00
3FFF80
7FFFC0
7FFFC0
FFFFE0
FF0FE0
FE0FE0
FE07E0
FE0FE0
FE0FE0
FE1FE0
FEFFE0
FEFFC0
FEFFC0
FEFF80
FEFE00
FEF800
FE0000
FE0000
FE0000
FE0000
FE0000
FE0000
FE0000
FE0000
FE0000
ENDCHAR
STARTCHAR 0051
ENCODING 81
SWIDTH 771 0
DWIDTH 30 0
BBX 28 32 1 -4
BITMAP
000F0000
00FFF000
01FFFC00
07FFFE00
0FFFFF00
1FFFFF80
3FFFFFC0
3FF07FC0
7FC03FE0
7F801FE0
7F000FE0
FF0007F0
FE0007F0
FE0007F0
FE0007F0
FE0007F0
FE0007F0
FF1F87F0
7F1F8FF0
7F9F9FE0
7FDFBFE0
3FDFFFC0
3FDFFFC0
1FDFFF80
0FDFFF00
07DFFE00
01DFF800
005FE000
001F8000
001F8000
001F8000
001F8000
ENDCHAR
STARTCHAR 0052
ENCODING 82
SWIDTH 565 0
DWIDTH 22 0
BBX 19 28 2 0
BITMAP
01F000
0FFE00
1FFF00
3FFF80
7FFFC0
7FFFE0
FFFFE0
FE1FE0
FE0FE0
FE0FE0
FE0FE0
FE7FC0
FEFF80
FEFF00
FEFF00
FEFFC0
FEFFE0
FEFFE0
FE0FE0
FE0FE0
FE07E0
FE07E0
FE07E0
FE07E0
FE07E0
FE07E0
FE07E0
FE07E0
ENDCHAR
STARTCHAR 0053
ENCODING 83
SWIDTH 514 0
DWIDTH 20 0
BBX 19 27 1 0
BITMAP
07FF80
1FFF80
3FFF80
7FFF80
7FFF80
FFFF80
FF0000
FE0000
FF0000
7F8000
7FE000
3FF800
1FFE00
0FFF00
07FF80
01FFC0
007FC0
003FC0
001FE0
001FE0
FFFFE0
FFFFC0
FFFFC0
FFFFC0
FFFF80
FFFF00
FFF800
ENDCHAR
STARTCHAR 0054
ENCODING 84
SWIDTH 488 0
DWIDTH 19 0
BBX 19 27 0 0
BITMAP
FFFFE0
FFFFE0
FFFFE0
FFFFE0
FFFFE0
FFFFE0
03F800
03F800
03F800
03F800
03F800
03F800
03F800
03F800
03F800
03F800
03F800
03F800
03F800
03F800
03F800
03F800
03F800
03F800
03F800
03F800
03F800
ENDCHAR
STARTCHAR 0055
ENCODING 85
SWIDTH 617 0
DWIDTH 24 0
BBX 20 27 2 0
BITMAP
FE03F0
FE03F0
FE03F0
FE03F0
FE03F0
FE03F0
FE03F0
FE03F0
FE03F0
FE03F0
FE03F0
FE03F0
FE03F0
FE03F0
FE03F0
FE03F0
FE03F0
FE03F0
FE07F0
FE07F0
FF8FF0
7FFFE0
7FFFE0
3FFFC0
1FFF80
0FFF00
07FE00
ENDCHAR
STARTCHAR 0056
ENCODING 86
SWIDTH 540 0
DWIDTH 21 0
BBX 22 27 0 0
BITMAP
FC01FC
FE01FC
FE01F8
FE03F8
7E03F8
7F03F8
7F03F0
7F07F0
3F07F0
3F87F0
3F87E0
3F8FE0
1F8FE0
1FCFE0
1FCFC0
1FDFC0
0FDFC0
0FDFC0
0FFF80
0FFF80
07FF80
07FF80
07FF00
03FF00
03FE00
01FE00
00FC00
ENDCHAR
STARTCHAR 0057
ENCODING 87
SWIDTH 900 0
DWIDTH 35 0
BBX 32 27 2 0
BITMAP
FC07E07F
FC07E07F
FC07E07F
FC07E07F
FC07E07F
FC07E07F
FC07E07F
FC07E07F
FC07E07F
FC07E07F
FC07E07F
FC07E07F
FC07E07F
FC07E07F
FC07E07F
FC07E07F
FC07E07F
FC0FE07F
FE0FE07F
FE0FF07E
FF1FF0FE
7FFFFFFE
7FFFFFFC
3FFFFFFC
3FFFFFF8
1FFE7FF0
07F83FE0
ENDCHAR
STARTCHAR 0058
ENCODING 88
SWIDTH 617 0
DWIDTH 24 0
BBX 23 27 1 0
BITMAP
F0003E
FE00FE
FF83FE
FFC7FE
FFEFFE
FFFFFE
3FFFF8
07FFC0
03FF80
01FF00
01FE00
00FE00
00FE00
00FE00
00FE00
00FE00
01FE00
01FF00
03FF80
0FFFC0
7FFFFC
FFFFFE
FFEFFE
FFC7FE
FF03FE
FC00FE
F0001E
ENDCHAR
STARTCHAR 0059
ENCODING 89
SWIDTH 565 0
DWIDTH 22 0
BBX 19 27 2 0
BITMAP
FC0FE0
FC0FE0
FC0FE0
FC0FE0
FC0FE0
FC0FE0
FC0FE0
FC0FE0
FC0FE0
FC0FC0
FE1FC0
FF3FC0
FFFFC0
7FFF80
3FFF80
3FFF00
0FFC00
03F800
03F000
03F000
03F000
03F000
03F000
03F000
03F000
03F000
03F000
ENDCHAR
STARTCHAR 005A
ENCODING 90
SWIDTH 514 0
DWIDTH 20 0
BBX 20 27 0 0
BITMAP
3FFFC0
3FFFF0
3FFFF0
3FFFF0
3FFFF0
3FFFF0
001FE0
001FE0
003FC0
007F80
00FF80
00FF00
01FE00
03FC00
07FC00
07F800
0FF000
1FE000
1FE000
3FC000
7FFFF0
7FFFF0
FFFFF0
FFFFF0
7FFFF0
7FFFF0
1FFFF0
ENDCHAR
STARTCHAR 005B
ENCODING 91
SWIDTH 334 0
DWIDTH 13 0
BBX 8 36 3 -9
BITMAP
FF
FF
F8
F8
F8
F8
F8
F8
F8
F8
F8
F8
F8
F8
F8
F8
F8
F8
F8
F8
F8
F8
F8
F8
F8
F8
F8
F8
F8
F8
F8
F8
F8
FF
FF
FF
ENDCHAR
STARTCHAR 005C
ENCODING 92
SWIDTH 257 0
DWIDTH 10 0
BBX 13 32 -1 -4
BITMAP
E000
E000
F000
7000
7000
7800
3800
3800
3C00
1C00
1C00
1E00
1E00
0E00
0F00
0F00
0700
0780
0780
0380
03C0
03C0
01C0
01C0
01E0
00E0
00E0
00F0
0070
0070
0078
0078
ENDCHAR
STARTCHAR 005D
ENCODING 93
SWIDTH 334 0
DWIDTH 13 0
BBX 8 36 2 -9
BITMAP
FF
FF
1F
1F
1F
1F
1F
1F
1F
1F
1F
1F
1F
1F
1F
1F
1F
1F
1F
1F
1F
1F
1F
1F
1F
1F
1F
1F
1F
1F
1F
1F
1F
FF
FF
FF
ENDCHAR
STARTCHAR 005E
ENCODING 94
SWIDTH 977 0
DWIDTH 38 0
BBX 23 11 8 17
BITMAP
00FC00
00FE00
01FF00
03FF80
07EFC0
0FC7E0
1F83E0
1F01F0
3E00F8
7C007C
F8003E
ENDCHAR
STARTCHAR 005F
ENCODING 95
SWIDTH 488 0
DWIDTH 19 0
BBX 19 4 0 -9
BITMAP
FFFFE0
FFFFE0
FFFFE0
FFFFE0
ENDCHAR
STARTCHAR 0060
ENCODING 96
SWIDTH 488 0
DWIDTH 19 0
BBX 8 7 5 21
BITMAP
F8
78
3C
3C
1E
0E
07
ENDCHAR
STARTCHAR 0061
ENCODING 97
SWIDTH 540 0
DWIDTH 21 0
BBX 19 20 1 0
BITMAP
00E000
07FC00
1FFF00
3FFF80
3FFFC0
7FFFC0
7FFFE0
FE0FE0
FC07E0
FC07E0
FC07E0
FC07E0
FE07E0
FF07E0
7FF7E0
7FF7E0
3FF7E0
1FF7E0
0FF7E0
03F7E0
ENDCHAR
STARTCHAR 0062
ENCODING 98
SWIDTH 540 0
DWIDTH 21 0
BBX 19 27 2 0
BITMAP
FC0000
FC0000
FC0000
FC0000
FC0000
FC0000
FC0000
FDF000
FDFC00
FDFF00
FDFF80
FDFF80
FDFFC0
FC1FC0
FC0FE0
FC0FE0
FC07E0
FC07E0
FC07E0
FC0FE0
FE1FC0
FFFFC0
7FFFC0
7FFF80
3FFF00
0FFE00
07F800
ENDCHAR
STARTCHAR 0063
ENCODING 99
SWIDTH 385 0
DWIDTH 15 0
BBX 14 19 1 0
BITMAP
03FC
0FFC
1FFC
3FFC
7FFC
7FFC
FF00
FE00
FC00
FC00
FC00
FE00
FF00
7FFC
7FFC
3FFC
1FFC
07FC
01FC
ENDCHAR
STARTCHAR 0064
ENCODING 100
SWIDTH 540 0
DWIDTH 21 0
BBX 19 27 1 0
BITMAP
0007E0
0007E0
0007E0
0007E0
0007E0
0007E0
0007E0
00C7E0
07F7E0
1FF7E0
3FF7E0
3FF7E0
7FF7E0
7FF7E0
FE07E0
FE07E0
FC07E0
FC07E0
FC07E0
FE07E0
FE0FE0
7FFFE0
7FFFC0
3FFF80
1FFF80
0FFE00
07FC00
ENDCHAR
STARTCHAR 0065
ENCODING 101
SWIDTH 540 0
DWIDTH 21 0
BBX 20 20 1 0
BITMAP
004000
07FC00
0FFF00
1FFF80
3FFFC0
7F0FC0
7E1FE0
FC3F80
FCFF00
FDFC00
FCF800
FC6180
FC43E0
FE07F0
7FFFE0
7FFFE0
3FFFC0
1FFF80
0FFF00
03FC00
ENDCHAR
STARTCHAR 0066
ENCODING 102
SWIDTH 334 0
DWIDTH 13 0
BBX 12 27 2 0
BITMAP
0FF0
3FF0
7FF0
7FF0
FFF0
FF00
FC00
FC00
FFF0
FFF0
FFF0
FFF0
FFF0
FC00
FC00
FC00
FC00
FC00
FC00
FC00
FC00
FC00
FC00
FC00
FC00
FC00
FC00
ENDCHAR
STARTCHAR 0067
ENCODING 103
SWIDTH 540 0
DWIDTH 21 0
BBX 19 29 1 -9
BITMAP
00E000
07FC00
1FFF00
3FFF80
3FFFC0
7FFFC0
7FFFE0
FE0FE0
FC07E0
FC07E0
FC07E0
FC07E0
FE07E0
FF07E0
7FF7E0
7FF7E0
3FF7E0
1FF7E0
0FF7E0
03F7E0
0007E0
0007E0
181FE0
1FFFC0
1FFFC0
1FFF80
1FFF00
1FFE00
01E000
ENDCHAR
STARTCHAR 0068
ENCODING 104
SWIDTH 540 0
DWIDTH 21 0
BBX 17 27 2 0
BITMAP
FC0000
FC0000
FC0000
FC0000
FC0000
FC0000
FC0000
FC6000
FFFC00
FFFE00
FFFF00
FFFF00
FFFF80
FE3F80
FC1F80
FC1F80
FC1F80
FC1F80
FC1F80
FC1F80
FC1F80
FC1F80
FC1F80
FC1F80
FC1F80
FC1F80
FC1F80
ENDCHAR
STARTCHAR 0069
ENCODING 105
SWIDTH 231 0
DWIDTH 9 0
BBX 7 28 1 0
BITMAP
3C
7E
FE
FE
FE
7E
3C
00
00
7E
7E
7E
7E
7E
7E
7E
7E
7E
7E
7E
7E
7E
7E
7E
7E
7E
7E
7E
ENDCHAR
STARTCHAR 006A
ENCODING 106
SWIDTH 231 0
DWIDTH 9 0
BBX 11 36 -3 -8
BITMAP
03C0
07E0
07E0
0FE0
0FE0
07E0
03C0
0000
0000
07E0
07E0
07E0
07E0
07E0
07E0
07E0
07E0
07E0
07E0
07E0
07E0
07E0
07E0
07E0
07E0
07E0
07E0
07E0
07E0
07E0
1FE0
FFC0
FFC0
FFC0
FF80
FE00
ENDCHAR
STARTCHAR 006B
ENCODING 107
SWIDTH 514 0
DWIDTH 20 0
BBX 17 27 2 0
BITMAP
FC0000
FC0000
FC0000
FC0000
FC0000
FC0000
FC0000
FC0000
FC1F80
FC3F80
FC3F00
FC7F00
FC7F00
FCFE00
FFFE00
FFF800
FFFC00
FFFF00
FFFF00
FFFF80
FC3F80
FC1F80
FC1F80
FC1F80
FC1F80
FC1F80
FC1F80
ENDCHAR
STARTCHAR 006C
ENCODING 108
SWIDTH 231 0
DWIDTH 9 0
BBX 6 27 2 0
BITMAP
FC
FC
FC
FC
FC
FC
FC
FC
FC
FC
FC
FC
FC
FC
FC
FC
FC
FC
FC
FC
FC
FC
FC
FC
FC
FC
FC
ENDCHAR
STARTCHAR 006D
ENCODING 109
SWIDTH 797 0
DWIDTH 31 0
BBX 28 20 2 0
BITMAP
03803800
0FF1FE00
3FFBFF80
7FFFFFC0
7FFFFFC0
FFFFFFE0
FE7FCFE0
FC3F87E0
FC1F87E0
FC1F83F0
FC1F83F0
FC1F83F0
FC1F83F0
FC1F83F0
FC1F83F0
FC1F83F0
FC1F83F0
FC1F83F0
FC1F83F0
FC1F83F0
ENDCHAR
STARTCHAR 006E
ENCODING 110
SWIDTH 514 0
DWIDTH 20 0
BBX 17 20 2 0
BITMAP
018000
0FF800
3FFC00
3FFE00
7FFF00
FFFF00
FE3F80
FC1F80
FC1F80
FC1F80
FC1F80
FC1F80
FC1F80
FC1F80
FC1F80
FC1F80
FC1F80
FC1F80
FC1F80
FC1F80
ENDCHAR
STARTCHAR 006F
ENCODING 111
SWIDTH 540 0
DWIDTH 21 0
BBX 19 20 1 0
BITMAP
00E000
07FC00
0FFF00
1FFF80
3FFFC0
7FFFC0
7FBFE0
FE0FE0
FE07E0
FC07E0
FC07E0
FC07E0
FE07E0
FF0FE0
7FFFE0
7FFFC0
3FFF80
1FFF80
0FFE00
03FC00
ENDCHAR
STARTCHAR 0070
ENCODING 112
SWIDTH 540 0
DWIDTH 21 0
BBX 19 28 2 -8
BITMAP
00E000
07FC00
1FFE00
3FFF00
7FFF80
7FFFC0
FFFFC0
FE0FE0
FC0FE0
FC07E0
FC07E0
FC07E0
FC0FE0
FC1FC0
FDFFC0
FDFFC0
FDFF80
FDFF00
FDFE00
FDF800
FC0000
FC0000
FC0000
FC0000
FC0000
FC0000
FC0000
FC0000
ENDCHAR
STARTCHAR 0071
ENCODING 113
SWIDTH 540 0
DWIDTH 21 0
BBX 19 28 1 -8
BITMAP
00E000
07FC00
1FFF00
3FFF80
3FFFC0
7FFFC0
7FFFE0
FE0FE0
FC07E0
FC07E0
FC07E0
FC07E0
FE07E0
FF07E0
7FF7E0
7FF7E0
3FF7E0
1FF7E0
0FF7E0
03F7E0
0007E0
0007E0
0007E0
0007E0
0007E0
0007E0
0007E0
0007E0
ENDCHAR
STARTCHAR 0072
ENCODING 114
SWIDTH 360 0
DWIDTH 14 0
BBX 12 19 2 0
BITMAP
F8F0
FBF0
FFF0
FFF0
FFF0
FFF0
FF00
FE00
FC00
FC00
FC00
FC00
FC00
FC00
FC00
FC00
FC00
FC00
FC00
ENDCHAR
STARTCHAR 0073
ENCODING 115
SWIDTH 437 0
DWIDTH 17 0
BBX 15 19 1 0
BITMAP
1FFC
3FFC
7FFC
7FFC
7FFC
7E00
7E00
7FC0
3FF0
1FF8
07FC
01FE
00FE
00FE
FFFE
FFFE
FFFC
FFF8
FFE0
ENDCHAR
STARTCHAR 0074
ENCODING 116
SWIDTH 334 0
DWIDTH 13 0
BBX 10 24 2 0
BITMAP
FC00
FC00
FC00
FC00
FC00
FFC0
FFC0
FFC0
FFC0
FFC0
FC00
FC00
FC00
FC00
FC00
FC00
FC00
FC00
FFC0
FFC0
7FC0
7FC0
3FC0
0FC0
ENDCHAR
STARTCHAR 0075
ENCODING 117
SWIDTH 514 0
DWIDTH 20 0
BBX 17 19 2 0
BITMAP
FC1F80
FC1F80
FC1F80
FC1F80
FC1F80
FC1F80
FC1F80
FC1F80
FC1F80
FC1F80
FC1F80
FC1F80
FC1F80
FFFF80
FFFF00
7FFF00
3FFE00
1FFC00
0FF000
ENDCHAR
STARTCHAR 0076
ENCODING 118
SWIDTH 462 0
DWIDTH 18 0
BBX 19 19 0 0
BITMAP
FC0FE0
FC0FC0
FE0FC0
7E0FC0
7E1F80
7E1F80
3F1F80
3F1F00
3F3F00
1F3F00
1FBF00
1FBE00
0FFE00
0FFE00
0FFC00
07FC00
07FC00
03F800
01F000
ENDCHAR
STARTCHAR 0077
ENCODING 119
SWIDTH 797 0
DWIDTH 31 0
BBX 28 19 2 0
BITMAP
FC1F83F0
FC1F83F0
FC1F83F0
FC1F83F0
FC1F83F0
FC1F83F0
FC1F83F0
FC1F83F0
FC1F83F0
FC1F83F0
FC1F83F0
FC3F87E0
FC3F87E0
FFFFFFE0
FFFFFFE0
7FFFFFC0
3FFFFF80
1FFBFF00
0FE0FE00
ENDCHAR
STARTCHAR 0078
ENCODING 120
SWIDTH 437 0
DWIDTH 17 0
BBX 17 19 0 0
BITMAP
F80F80
FE3F80
FF7F80
FFFF80
FFFF80
FFFF80
0FF800
07F000
03F000
03F000
07F000
07F000
0FFC00
FFFF80
FFFF80
FFFF80
FF7F80
FC1F80
F00780
ENDCHAR
STARTCHAR 0079
ENCODING 121
SWIDTH 514 0
DWIDTH 20 0
BBX 17 27 2 -8
BITMAP
FC1F80
FC1F80
FC1F80
FC1F80
FC1F80
FC1F80
FC1F80
FC1F80
FC1F80
FC1F80
FC1F80
FC1F80
FC1F80
FE7F80
FFFF00
7FFF00
3FFE00
1FFC00
0FF000
07E000
07E000
07E000
07E000
07E000
07E000
07E000
07E000
ENDCHAR
STARTCHAR 007A
ENCODING 122
SWIDTH 437 0
DWIDTH 17 0
BBX 16 19 1 0
BITMAP
7FFC
7FFE
7FFF
7FFF
7FFF
01FE
01FC
03F8
07F8
0FF0
1FE0
3FC0
7F80
FFFF
FFFF
FFFF
FFFF
FFFF
7FFF
ENDCHAR
STARTCHAR 007B
ENCODING 123
SWIDTH 488 0
DWIDTH 19 0
BBX 14 36 3 -8
BITMAP
00FC
03FC
07FC
07FC
07FC
07E0
07C0
07C0
07C0
07C0
07C0
07C0
07C0
0FC0
0FC0
3FC0
FF80
FF00
FF00
FF80
1FC0
0FC0
0FC0
07C0
07C0
07C0
07C0
07C0
07C0
07C0
07E0
07FC
07FC
07FC
03FC
007C
ENDCHAR
STARTCHAR 007C
ENCODING 124
SWIDTH 488 0
DWIDTH 19 0
BBX 5 39 7 -9
BITMAP
F8
F8
F8
F8
F8
F8
F8
F8
F8
F8
F8
F8
F8
F8
F8
F8
F8
F8
F8
F8
F8
F8
F8
F8
F8
F8
F8
F8
F8
F8
F8
F8
F8
F8
F8
F8
F8
F8
F8
ENDCHAR
STARTCHAR 007D
ENCODING 125
SWIDTH 488 0
DWIDTH 19 0
BBX 14 36 3 -8
BITMAP
FC00
FF00
FF00
FF80
FF80
1F80
1F80
1F80
1F80
1F80
1F80
1F80
1F80
1F80
0FC0
0FF0
0FFC
03FC
03FC
0FFC
0FE0
0FC0
1F80
1F80
1F80
1F80
1F80
1F80
1F80
1F80
1F80
FF80
FF80
FF00
FE00
F800
ENDCHAR
STARTCHAR 007E
ENCODING 126
SWIDTH 822 0
DWIDTH 32 0
BBX 26 7 3 9
BITMAP
0FF000C0
3FFE01C0
FFFFFFC0
FFFFFFC0
FEFFFFC0
F007FF00
C000F800
ENDCHAR
STARTCHAR 0080
ENCODING 128
SWIDTH 540 0
DWIDTH 21 0
BBX 21 27 0 0
BITMAP
0007F8
003FF8
007FF8
01FFF8
03FFF8
03FFF8
07FC00
07F000
0FE000
0FE000
7FFFE0
FFFFE0
0FC000
0FC000
7FFFC0
FFFFC0
FFFFC0
0FE000
0FF000
07F800
07FE00
03FFF8
03FFF8
01FFF8
007FF8
001FF8
0003F8
ENDCHAR
STARTCHAR 00A0
ENCODING 160
SWIDTH 540 0
DWIDTH 21 0
BBX 0 0 0 0
BITMAP
ENDCHAR
STARTCHAR 00A1
ENCODING 161
SWIDTH 308 0
DWIDTH 12 0
BBX 8 28 2 0
BITMAP
18
3E
7F
7F
FF
7F
7F
3C
00
00
7F
7F
7F
7F
7F
7F
7F
7F
7F
7F
7F
7F
7F
7F
7F
7F
7F
7F
ENDCHAR
STARTCHAR 00A2
ENCODING 162
SWIDTH 540 0
DWIDTH 21 0
BBX 13 27 4 0
BITMAP
01C0
01C0
01C0
01C0
01C0
03F8
1FF8
3FF8
7FF8
7FF8
7F00
FC00
FC00
F800
FC00
FC00
7FC0
7FF8
7FF8
3FF8
1FF8
03F8
01C0
01C0
01C0
01C0
01C0
ENDCHAR
STARTCHAR 00A3
ENCODING 163
SWIDTH 540 0
DWIDTH 21 0
BBX 21 28 0 0
BITMAP
003E00
00FF80
01FF80
03FF80
07FF80
07FF80
0FF980
0FE000
0FE000
0FE000
3FFC00
3FFC00
3FFC00
3FFC00
3FFC00
3FFC00
0FE1F8
0FE1F8
0FC1F8
0FC1F8
1FC3F8
3F8FF8
FFFFF8
FFFFF0
FFFFF0
FFFFE0
FFFFC0
FFFF00
ENDCHAR
STARTCHAR 00A4
ENCODING 164
SWIDTH 540 0
DWIDTH 21 0
BBX 21 27 0 0
BITMAP
0007F8
003FF8
007FF8
01FFF8
03FFF8
03FFF8
07FC00
07F000
0FE000
0FE000
7FFFE0
FFFFE0
0FC000
0FC000
7FFFC0
FFFFC0
FFFFC0
0FE000
0FF000
07F800
07FE00
03FFF8
03FFF8
01FFF8
007FF8
001FF8
0003F8
ENDCHAR
STARTCHAR 00A5
ENCODING 165
SWIDTH 591 0
DWIDTH 23 0
BBX 23 27 0 0
BITMAP
7E00FE
7E00FC
7F01FC
3F01F8
3F01F8
1F83F0
1F83F0
FFC7FE
FFC7FE
FFC7FE
07EFC0
03EFC0
03FF80
FFFFFE
FFFFFE
FFFFFE
00FE00
00FE00
00FE00
00FE00
00FE00
00FE00
00FE00
00FE00
00FE00
00FE00
00FE00
ENDCHAR
STARTCHAR 00A6
ENCODING 166
SWIDTH 488 0
DWIDTH 19 0
BBX 5 34 7 -7
BITMAP
F8
F8
F8
F8
F8
F8
F8
F8
F8
F8
F8
F8
F8
F8
00
00
00
00
00
F8
F8
F8
F8
F8
F8
F8
F8
F8
F8
F8
F8
F8
F8
F8
ENDCHAR
STARTCHAR 00A7
ENCODING 167
SWIDTH 514 0
DWIDTH 20 0
BBX 17 30 2 -3
BITMAP
0FFE00
3FFE00
3FFE00
7FFE00
7FFE00
7FFE00
7E0000
7E0000
7F0000
3FC000
3FF000
7FFC00
7FFE00
FC7F00
7C1F80
7E1F80
7FDF80
3FFF80
0FFF00
03FE00
00FF00
003F80
001F80
003F80
7FFF80
7FFF80
7FFF00
7FFF00
7FFC00
7FF000
ENDCHAR
STARTCHAR 00A8
ENCODING 168
SWIDTH 488 0
DWIDTH 19 0
BBX 11 5 4 22
BITMAP
71E0
F9E0
F9E0
F9E0
2040
ENDCHAR
STARTCHAR 00A9
ENCODING 169
SWIDTH 822 0
DWIDTH 32 0
BBX 28 28 2 0
BITMAP
003FE000
01FFF800
03F8FE00
07801F00
0E000780
1C0003C0
383FC1C0
387FF0E0
70FDF0E0
61F07870
E1E07870
E1E00030
E1E00030
E3E00030
E3E00030
E1E00030
E1E07830
E1E07870
61F07870
70FFF0E0
387FF0E0
383FC1C0
1C0003C0
0F000780
07801F00
03F9FC00
01FFF800
003FE000
ENDCHAR
STARTCHAR 00AA
ENCODING 170
SWIDTH 411 0
DWIDTH 16 0
BBX 14 13 1 15
BITMAP
1FE0
3FF0
7FF8
FFFC
F87C
F87C
F03C
F03C
F83C
FFBC
7FBC
3FBC
1FBC
ENDCHAR
STARTCHAR 00AB
ENCODING 171
SWIDTH 540 0
DWIDTH 21 0
BBX 17 13 2 3
BITMAP
078780
0F0F00
1F1E00
3E3E00
3C7C00
787800
F8F000
7C7800
3C3C00
1E3E00
1F1F00
0F8F00
078780
ENDCHAR
STARTCHAR 00AC
ENCODING 172
SWIDTH 822 0
DWIDTH 32 0
BBX 23 9 5 7
BITMAP
FFFFFE
FFFFFE
FFFFFE
FFFFFE
00003E
00003E
00003E
00003E
00003E
ENDCHAR
STARTCHAR 00AD
ENCODING 173
SWIDTH 308 0
DWIDTH 12 0
BBX 11 5 1 7
BITMAP
FFE0
FFE0
FFE0
FFE0
FFE0
ENDCHAR
STARTCHAR 00AE
ENCODING 174
SWIDTH 822 0
DWIDTH 32 0
BBX 28 28 2 0
BITMAP
003FE000
01FFF800
03F8FE00
07801F00
0E000780
1C0003C0
38FFC1C0
38FFF0E0
70FFF8E0
60F0F870
E0F07870
E0F07830
E0F1F830
E0FFF030
E0FFC030
E0F3C030
E0F3E030
E0F1E070
70F1F070
70F0F0E0
38F0F8E0
380001C0
1C0003C0
0F000780
07801F00
03F9FE00
01FFF800
003FC000
ENDCHAR
STARTCHAR 00AF
ENCODING 175
SWIDTH 488 0
DWIDTH 19 0
BBX 11 3 4 23
BITMAP
FFE0
FFE0
FFE0
ENDCHAR
STARTCHAR 00B0
ENCODING 176
SWIDTH 308 0
DWIDTH 12 0
BBX 11 12 1 16
BITMAP
0E00
3F80
7FC0
F1E0
E0E0
C0E0
C0E0
E0E0
E1E0
7FC0
7F80
1F00
ENDCHAR
STARTCHAR 00B1
ENCODING 177
SWIDTH 822 0
DWIDTH 32 0
BBX 23 24 5 0
BITMAP
007800
007800
007800
007800
007800
007800
FFFFFE
FFFFFE
FFFFFE
FFFFFE
FFFFFE
007800
007800
007800
007800
007800
007800
000000
000000
000000
FFFFFE
FFFFFE
FFFFFE
FFFFFE
ENDCHAR
STARTCHAR 00B2
ENCODING 178
SWIDTH 360 0
DWIDTH 14 0
BBX 12 16 1 12
BITMAP
1FC0
7FE0
7FF0
F9F0
F0F0
F9F0
7BE0
77E0
2FC0
1F80
3F00
7E00
7FF0
FFF0
FFF0
7FF0
ENDCHAR
STARTCHAR 00B3
ENCODING 179
SWIDTH 360 0
DWIDTH 14 0
BBX 12 16 1 11
BITMAP
7FE0
7FE0
7FF0
01E0
03E0
0F80
1F00
1FE0
1FF0
01F0
00F0
00F0
FFF0
FFF0
FFE0
FF80
ENDCHAR
STARTCHAR 00B4
ENCODING 180
SWIDTH 488 0
DWIDTH 19 0
BBX 8 7 7 21
BITMAP
1F
3E
3C
78
70
E0
C0
ENDCHAR
STARTCHAR 00B5
ENCODING 181
SWIDTH 617 0
DWIDTH 24 0
BBX 25 29 -1 -8
BITMAP
07E03F80
0FE03F80
0FE03F80
0FE03F00
0FE07F00
0FE07F00
0FE07F00
0FC07F00
1FC07F00
1FC07E00
1FC07E00
1FC0FE00
1FC0FE00
1FC0FE00
3FC1FE00
3FC3FE00
3FFFFC00
3FFFFC00
3FFFFC00
3F7EFC00
7F3CFC00
7F000000
7F000000
7F000000
7F000000
7E000000
7E000000
FE000000
FE000000
ENDCHAR
STARTCHAR 00B6
ENCODING 182
SWIDTH 488 0
DWIDTH 19 0
BBX 18 28 1 0
BITMAP
0FFFC0
3FFFC0
7FC700
FFC700
FFC700
FFC700
FFC700
FFC700
FFC700
FFC700
7FC700
3FC700
1FC700
03C700
03C700
03C700
03C700
03C700
03C700
03C700
03C700
03C700
03C700
03C700
03C700
03C700
03C700
03C700
ENDCHAR
STARTCHAR 00B7
ENCODING 183
SWIDTH 257 0
DWIDTH 10 0
BBX 7 8 2 10
BITMAP
38
7C
FE
FE
FE
FE
FE
38
ENDCHAR
STARTCHAR 00B8
ENCODING 184
SWIDTH 488 0
DWIDTH 19 0
BBX 10 11 5 -9
BITMAP
0600
0C00
0C00
0C00
0F80
0FC0
01C0
01C0
E3C0
FFC0
7F80
ENDCHAR
STARTCHAR 00B9
ENCODING 185
SWIDTH 360 0
DWIDTH 14 0
BBX 7 16 4 11
BITMAP
FE
FE
FE
3E
3E
3E
3E
3E
3E
3E
3E
3E
3E
3E
3E
3E
ENDCHAR
STARTCHAR 00BA
ENCODING 186
SWIDTH 411 0
DWIDTH 16 0
BBX 14 14 1 14
BITMAP
1FE0
3FF0
7FF8
FFFC
F87C
F87C
F03C
F87C
F87C
FFFC
7FF8
3FF0
1FE0
0200
ENDCHAR
STARTCHAR 00BB
ENCODING 187
SWIDTH 540 0
DWIDTH 21 0
BBX 17 13 2 3
BITMAP
F0F000
787800
3C7C00
3E3E00
1F1E00
0F0F00
078F80
0F0F00
1E1E00
3E3C00
7C7C00
78F800
F0F000
ENDCHAR
STARTCHAR 00BC
ENCODING 188
SWIDTH 874 0
DWIDTH 34 0
BBX 31 27 3 0
BITMAP
FE000E00
FE001E00
FE003C00
1E003C00
1E007800
1E007800
1E00F000
1E00E000
1E01E000
1E03C000
1E03C000
1E078000
1E0781E8
1E0F03D8
1E0E03D8
001E07B8
003C0F78
003C0F78
00781E78
00781E78
00F03C7E
01E03FFE
01E03FFE
03C01FFE
03C00078
07800078
07000078
ENDCHAR
STARTCHAR 00BD
ENCODING 189
SWIDTH 874 0
DWIDTH 34 0
BBX 30 27 3 0
BITMAP
FE000E00
FE001E00
FE003C00
1E003C00
1E007800
1E007800
1E00F000
1E00E000
1E01E000
1E03C000
1E03C000
1E078000
1E0787F0
1E0F1FF8
1E0E1FF8
001E1E7C
003C1E3C
003C1E7C
00781EF8
00780DF0
00F003E0
01E007C0
01E00F80
03C01FFC
03C03FFC
07803FFC
07001FFC
ENDCHAR
STARTCHAR 00BE
ENCODING 190
SWIDTH 874 0
DWIDTH 34 0
BBX 33 27 1 0
BITMAP
FFC0038000
FFE0078000
FFE00F0000
03E00F0000
07C01E0000
0F001E0000
1F803C0000
1FE0380000
1FE0780000
00F0F00000
00F0F00000
07F1E00000
FFE1E07A00
FFC3C0F600
FF8380F600
000781EE00
000F03DE00
000F03DE00
001E079E00
001E079E00
003C0F1F80
00780FFF80
00780FFF80
00F007FF80
00F0001E00
01E0001E00
01C0001E00
ENDCHAR
STARTCHAR 00BF
ENCODING 191
SWIDTH 514 0
DWIDTH 20 0
BBX 18 28 1 0
BITMAP
004000
01F000
03F800
03F800
03F800
03F800
03F800
01F000
000000
000000
01F800
01F800
07F800
1FF800
3FF800
7FF800
7FF800
FF8000
FE0000
FE0000
FE0E00
FF0FC0
7FFFC0
7FFFC0
3FFF80
3FFF00
1FFE00
07FC00
ENDCHAR
STARTCHAR 00C0
ENCODING 192
SWIDTH 617 0
DWIDTH 24 0
BBX 21 37 2 0
BITMAP
07C000
03C000
03E000
01E000
00F000
007000
003800
000000
000000
00F000
07FE00
0FFF80
1FFFC0
3FFFC0
7FFFE0
7FFFF0
FF0FF0
FE07F0
FE03F0
FE03F0
FE03F8
FEFFF8
FEFFF8
FEFFF8
FEFFF8
FEFFF8
FEFFF8
FE03F8
FE03F8
FE03F8
FE03F8
FE03F8
FE03F8
FE03F8
FE03F8
FE03F8
FE03F8
ENDCHAR
STARTCHAR 00C1
ENCODING 193
SWIDTH 617 0
DWIDTH 24 0
BBX 21 37 2 0
BITMAP
001F00
003E00
003C00
007800
007000
00E000
00C000
000000
000000
00F000
07FE00
0FFF80
1FFFC0
3FFFC0
7FFFE0
7FFFF0
FF0FF0
FE07F0
FE03F0
FE03F0
FE03F8
FEFFF8
FEFFF8
FEFFF8
FEFFF8
FEFFF8
FEFFF8
FE03F8
FE03F8
FE03F8
FE03F8
FE03F8
FE03F8
FE03F8
FE03F8
FE03F8
FE03F8
ENDCHAR
STARTCHAR 00C2
ENCODING 194
SWIDTH 617 0
DWIDTH 24 0
BBX 21 36 2 0
BITMAP
00F800
01F800
01FC00
03DC00
039E00
070E00
060700
000000
00F000
07FE00
0FFF80
1FFFC0
3FFFC0
7FFFE0
7FFFF0
FF0FF0
FE07F0
FE03F0
FE03F0
FE03F8
FEFFF8
FEFFF8
FEFFF8
FEFFF8
FEFFF8
FEFFF8
FE03F8
FE03F8
FE03F8
FE03F8
FE03F8
FE03F8
FE03F8
FE03F8
FE03F8
FE03F8
ENDCHAR
STARTCHAR 00C3
ENCODING 195
SWIDTH 617 0
DWIDTH 24 0
BBX 21 36 2 0
BITMAP
000300
03E700
07FE00
07FE00
0E1C00
000000
000000
000000
00F000
07FE00
0FFF80
1FFFC0
3FFFC0
7FFFE0
7FFFF0
FF0FF0
FE07F0
FE03F0
FE03F0
FE03F8
FEFFF8
FEFFF8
FEFFF8
FEFFF8
FEFFF8
FEFFF8
FE03F8
FE03F8
FE03F8
FE03F8
FE03F8
FE03F8
FE03F8
FE03F8
FE03F8
FE03F8
ENDCHAR
STARTCHAR 00C4
ENCODING 196
SWIDTH 617 0
DWIDTH 24 0
BBX 21 36 2 0
BITMAP
030400
079F00
0F9F00
0F9F00
078E00
000000
000000
000000
00F000
07FE00
0FFF80
1FFFC0
3FFFC0
7FFFE0
7FFFF0
FF0FF0
FE07F0
FE03F0
FE03F0
FE03F8
FEFFF8
FEFFF8
FEFFF8
FEFFF8
FEFFF8
FEFFF8
FE03F8
FE03F8
FE03F8
FE03F8
FE03F8
FE03F8
FE03F8
FE03F8
FE03F8
FE03F8
ENDCHAR
STARTCHAR 00C5
ENCODING 197
SWIDTH 617 0
DWIDTH 24 0
BBX 21 37 2 0
BITMAP
01F800
03FC00
039E00
070E00
070E00
070E00
039E00
03FC00
01F800
00F000
07FE00
0FFF80
1FFFC0
3FFFC0
7FFFE0
7FFFF0
FF0FF0
FE07F0
FE03F0
FE03F0
FE03F8
FEFFF8
FEFFF8
FEFFF8
FEFFF8
FEFFF8
FEFFF8
FE03F8
FE03F8
FE03F8
FE03F8
FE03F8
FE03F8
FE03F8
FE03F8
FE03F8
FE03F8
ENDCHAR
STARTCHAR 00C6
ENCODING 198
SWIDTH 848 0
DWIDTH 33 0
BBX 30 28 2 0
BITMAP
00F00000
07FE01FC
0FFF0FFC
1FFF9FFC
3FFFFFFC
7FFFFFFC
7FFFFFFC
FF0FFF00
FE07FC00
FE03F800
FE03F000
FE03F000
FEFFFFFC
FEFFFFFC
FEFFFFFC
FEFFFFFC
FEFFFFFC
FE03F000
FE03F000
FE03F800
FE03FC00
FE03FF80
FE03FFFC
FE03FFFC
FE03FFFC
FE03FFFC
FE03F7FC
FE03F0FC
ENDCHAR
STARTCHAR 00C7
ENCODING 199
SWIDTH 488 0
DWIDTH 19 0
BBX 18 36 1 -9
BITMAP
003FC0
01FFC0
03FFC0
0FFFC0
1FFFC0
1FFFC0
3FF800
7FC000
7F8000
7F0000
FF0000
FE0000
FE0000
FE0000
FE0000
FE0000
FF0000
7F0000
7F8000
7FE000
3FFE00
1FFFC0
0FFFC0
07FFC0
03FFC0
00FFC0
003FC0
003000
003000
003E00
007F00
000700
000700
038F00
03FF00
01FC00
ENDCHAR
STARTCHAR 00C8
ENCODING 200
SWIDTH 514 0
DWIDTH 20 0
BBX 18 37 1 0
BITMAP
03E000
01F000
00F000
007800
003800
001C00
001C00
000000
000000
000000
003FC0
01FFC0
03FFC0
0FFFC0
1FFFC0
1FFFC0
3FF000
7FC000
7F8000
7F0000
FFFFC0
FFFFC0
FFFFC0
FFFFC0
FFFFC0
FFFFC0
FF0000
7F0000
7F8000
7FC000
3FF800
1FFFC0
0FFFC0
07FFC0
03FFC0
00FFC0
001FC0
ENDCHAR
STARTCHAR 00C9
ENCODING 201
SWIDTH 514 0
DWIDTH 20 0
BBX 18 37 1 0
BITMAP
000F80
000F00
001E00
001E00
003C00
003800
007000
000000
000000
000000
003FC0
01FFC0
03FFC0
0FFFC0
1FFFC0
1FFFC0
3FF000
7FC000
7F8000
7F0000
FFFFC0
FFFFC0
FFFFC0
FFFFC0
FFFFC0
FFFFC0
FF0000
7F0000
7F8000
7FC000
3FF800
1FFFC0
0FFFC0
07FFC0
03FFC0
00FFC0
001FC0
ENDCHAR
STARTCHAR 00CA
ENCODING 202
SWIDTH 514 0
DWIDTH 20 0
BBX 18 36 1 0
BITMAP
007C00
007E00
00FE00
00EF00
01E700
01C380
038380
000000
000000
003FC0
01FFC0
03FFC0
0FFFC0
1FFFC0
1FFFC0
3FF000
7FC000
7F8000
7F0000
FFFFC0
FFFFC0
FFFFC0
FFFFC0
FFFFC0
FFFFC0
FF0000
7F0000
7F8000
7FC000
3FF800
1FFFC0
0FFFC0
07FFC0
03FFC0
00FFC0
001FC0
ENDCHAR
STARTCHAR 00CB
ENCODING 203
SWIDTH 514 0
DWIDTH 20 0
BBX 18 36 1 0
BITMAP
008300
03E780
03E7C0
03E780
01C780
000000
000000
000000
000000
003FC0
01FFC0
03FFC0
0FFFC0
1FFFC0
1FFFC0
3FF000
7FC000
7F8000
7F0000
FFFFC0
FFFFC0
FFFFC0
FFFFC0
FFFFC0
FFFFC0
FF0000
7F0000
7F8000
7FC000
3FF800
1FFFC0
0FFFC0
07FFC0
03FFC0
00FFC0
001FC0
ENDCHAR
STARTCHAR 00CC
ENCODING 204
SWIDTH 257 0
DWIDTH 10 0
BBX 9 37 0 0
BITMAP
F800
7800
3C00
1E00
1E00
0F00
0700
0000
0000
0000
3F80
3F80
3F80
3F80
3F80
3F80
3F80
3F80
3F80
3F80
3F80
3F80
3F80
3F80
3F80
3F80
3F80
3F80
3F80
3F80
3F80
3F80
3F80
3F80
3F80
3F80
3F80
ENDCHAR
STARTCHAR 00CD
ENCODING 205
SWIDTH 257 0
DWIDTH 10 0
BBX 9 37 2 0
BITMAP
0F80
1F00
1E00
3C00
3800
7800
7000
0000
0000
0000
FE00
FE00
FE00
FE00
FE00
FE00
FE00
FE00
FE00
FE00
FE00
FE00
FE00
FE00
FE00
FE00
FE00
FE00
FE00
FE00
FE00
FE00
FE00
FE00
FE00
FE00
FE00
ENDCHAR
STARTCHAR 00CE
ENCODING 206
SWIDTH 257 0
DWIDTH 10 0
BBX 11 37 0 0
BITMAP
1F00
1F00
3F80
3B80
71C0
F1E0
E0E0
0000
0000
0000
3F80
3F80
3F80
3F80
3F80
3F80
3F80
3F80
3F80
3F80
3F80
3F80
3F80
3F80
3F80
3F80
3F80
3F80
3F80
3F80
3F80
3F80
3F80
3F80
3F80
3F80
3F80
ENDCHAR
STARTCHAR 00CF
ENCODING 207
SWIDTH 257 0
DWIDTH 10 0
BBX 11 36 0 0
BITMAP
60C0
F1E0
FBE0
FBE0
F1E0
0000
0000
0000
0000
3F80
3F80
3F80
3F80
3F80
3F80
3F80
3F80
3F80
3F80
3F80
3F80
3F80
3F80
3F80
3F80
3F80
3F80
3F80
3F80
3F80
3F80
3F80
3F80
3F80
3F80
3F80
ENDCHAR
STARTCHAR 00D0
ENCODING 208
SWIDTH 642 0
DWIDTH 25 0
BBX 24 27 0 0
BITMAP
3FFC00
3FFF80
3FFFC0
3FFFF0
3FFFF8
3FFFF8
3F9FFC
3F83FE
3F81FE
3F80FF
3F807F
FFF07F
FFF07F
FFF07F
FFF07F
3F807F
3F80FF
3F80FE
3F81FE
3F83FE
3FBFFC
3FBFF8
3FBFF8
3FBFF0
3FBFC0
3FBF80
3FBC00
ENDCHAR
STARTCHAR 00D1
ENCODING 209
SWIDTH 642 0
DWIDTH 25 0
BBX 22 36 2 0
BITMAP
000180
01F380
03FF00
07FE00
061C00
000000
000000
000000
180000
7E01FC
FF01FC
FF81FC
FF81FC
FFC1FC
FFC1FC
FFE1FC
FFE1FC
FFF1FC
FFF9FC
FDF9FC
FDFDFC
FCFDFC
FCFFFC
FC7FFC
FC7EFC
FE3FFC
FE3FFC
FE1FFC
FE1FFC
FE0FFC
FE07FC
FE07FC
FE03FC
FE03FC
FE01F8
FE00F8
ENDCHAR
STARTCHAR 00D2
ENCODING 210
SWIDTH 771 0
DWIDTH 30 0
BBX 28 37 1 0
BITMAP
007C0000
003C0000
003E0000
001E0000
000F0000
00070000
00038000
00000000
00000000
000F0000
00FFF000
01FFFC00
07FFFE00
0FFFFF00
1FFFFF80
3FFFFFC0
3FF07FC0
7FC03FE0
7F801FE0
7F000FE0
FF0007F0
FE0007F0
FE0007F0
FE0007F0
FE0007F0
FE0007F0
FF000FF0
7F000FE0
7F801FE0
7FC03FE0
3FF0FFC0
1FFFFF80
1FFFFF80
0FFFFF00
07FFFE00
01FFF800
007FE000
ENDCHAR
STARTCHAR 00D3
ENCODING 211
SWIDTH 771 0
DWIDTH 30 0
BBX 28 37 1 0
BITMAP
0001E000
0003E000
0003C000
00078000
000F0000
000E0000
001C0000
00000000
00000000
000F0000
00FFF000
01FFFC00
07FFFE00
0FFFFF00
1FFFFF80
3FFFFFC0
3FF07FC0
7FC03FE0
7F801FE0
7F000FE0
FF0007F0
FE0007F0
FE0007F0
FE0007F0
FE0007F0
FE0007F0
FF000FF0
7F000FE0
7F801FE0
7FC03FE0
3FF0FFC0
1FFFFF80
1FFFFF80
0FFFFF00
07FFFE00
01FFF800
007FE000
ENDCHAR
STARTCHAR 00D4
ENCODING 212
SWIDTH 771 0
DWIDTH 30 0
BBX 28 36 1 0
BITMAP
000F0000
001F8000
001F8000
003FC000
0079E000
0070E000
00E07000
00000000
000F0000
00FFF000
01FFFC00
07FFFE00
0FFFFF00
1FFFFF80
3FFFFFC0
3FF07FC0
7FC03FE0
7F801FE0
7F000FE0
FF0007F0
FE0007F0
FE0007F0
FE0007F0
FE0007F0
FE0007F0
FF000FF0
7F000FE0
7F801FE0
7FC03FE0
3FF0FFC0
1FFFFF80
1FFFFF80
0FFFFF00
07FFFE00
01FFF800
007FE000
ENDCHAR
STARTCHAR 00D5
ENCODING 213
SWIDTH 771 0
DWIDTH 30 0
BBX 28 36 1 0
BITMAP
00003000
003E7000
007FE000
007FE000
00E1C000
00000000
00000000
00000000
000F0000
00FFF000
01FFFC00
07FFFE00
0FFFFF00
1FFFFF80
3FFFFFC0
3FF07FC0
7FC03FE0
7F801FE0
7F000FE0
FF0007F0
FE0007F0
FE0007F0
FE0007F0
FE0007F0
FE0007F0
FF000FF0
7F000FE0
7F801FE0
7FC03FE0
3FF0FFC0
1FFFFF80
1FFFFF80
0FFFFF00
07FFFE00
01FFF800
007FE000
ENDCHAR
STARTCHAR 00D6
ENCODING 214
SWIDTH 771 0
DWIDTH 30 0
BBX 28 36 1 0
BITMAP
00304000
0079E000
00F9F000
00F9F000
0078E000
00000000
00000000
00000000
000F0000
00FFF000
01FFFC00
07FFFE00
0FFFFF00
1FFFFF80
3FFFFFC0
3FF07FC0
7FC03FE0
7F801FE0
7F000FE0
FF0007F0
FE0007F0
FE0007F0
FE0007F0
FE0007F0
FE0007F0
FF000FF0
7F000FE0
7F801FE0
7FC03FE0
3FF0FFC0
1FFFFF80
1FFFFF80
0FFFFF00
07FFFE00
01FFF800
007FE000
ENDCHAR
STARTCHAR 00D7
ENCODING 215
SWIDTH 822 0
DWIDTH 32 0
BBX 23 23 5 0
BITMAP
100010
380038
7C007C
7E00FC
3F01F8
1F83F0
0FC7F0
07EFE0
03FFC0
01FF80
00FF00
00FE00
01FF00
03FF80
07EFC0
0FE7E0
1FC3F0
3F81F8
7F00FC
FE007E
7C003C
380018
100000
ENDCHAR
STARTCHAR 00D8
ENCODING 216
SWIDTH 771 0
DWIDTH 30 0
BBX 28 30 1 -2
BITMAP
00000080
000F00C0
00FFF1F0
01FFFBE0
07FFFFC0
0FFFFF80
1FFFFF80
3FFFFFC0
3FE07FC0
7FC07FE0
7F80FFE0
7F01FFE0
FE03E7F0
FE07C7F0
FE0F87F0
FE1F07F0
FE1E07F0
FE3C07F0
FF7C07F0
7FF80FE0
7FF01FE0
7FE03FE0
3FF0FFC0
1FFFFFC0
1FFFFF80
3FFFFF00
3FFFFE00
7DFFF800
F87FE000
70000000
ENDCHAR
STARTCHAR 00D9
ENCODING 217
SWIDTH 617 0
DWIDTH 24 0
BBX 20 37 2 0
BITMAP
07C000
03C000
03E000
01E000
00F000
007000
003800
000000
000000
000000
FE03F0
FE03F0
FE03F0
FE03F0
FE03F0
FE03F0
FE03F0
FE03F0
FE03F0
FE03F0
FE03F0
FE03F0
FE03F0
FE03F0
FE03F0
FE03F0
FE03F0
FE03F0
FE07F0
FE07F0
FF8FF0
7FFFE0
7FFFE0
3FFFC0
1FFF80
0FFF00
07FE00
ENDCHAR
STARTCHAR 00DA
ENCODING 218
SWIDTH 617 0
DWIDTH 24 0
BBX 20 37 2 0
BITMAP
001F00
003E00
003C00
007800
007000
00E000
00C000
000000
000000
000000
FE03F0
FE03F0
FE03F0
FE03F0
FE03F0
FE03F0
FE03F0
FE03F0
FE03F0
FE03F0
FE03F0
FE03F0
FE03F0
FE03F0
FE03F0
FE03F0
FE03F0
FE03F0
FE07F0
FE07F0
FF8FF0
7FFFE0
7FFFE0
3FFFC0
1FFF80
0FFF00
07FE00
ENDCHAR
STARTCHAR 00DB
ENCODING 219
SWIDTH 617 0
DWIDTH 24 0
BBX 20 37 2 0
BITMAP
00F800
01F800
01FC00
03FC00
039E00
070E00
060700
000000
000000
000000
FE03F0
FE03F0
FE03F0
FE03F0
FE03F0
FE03F0
FE03F0
FE03F0
FE03F0
FE03F0
FE03F0
FE03F0
FE03F0
FE03F0
FE03F0
FE03F0
FE03F0
FE03F0
FE07F0
FE07F0
FF8FF0
7FFFE0
7FFFE0
3FFFC0
1FFF80
0FFF00
07FE00
ENDCHAR
STARTCHAR 00DC
ENCODING 220
SWIDTH 617 0
DWIDTH 24 0
BBX 20 36 2 0
BITMAP
030400
079F00
0F9F00
0F9F00
078E00
000000
000000
000000
000000
FE03F0
FE03F0
FE03F0
FE03F0
FE03F0
FE03F0
FE03F0
FE03F0
FE03F0
FE03F0
FE03F0
FE03F0
FE03F0
FE03F0
FE03F0
FE03F0
FE03F0
FE03F0
FE07F0
FE07F0
FF8FF0
7FFFE0
7FFFE0
3FFFC0
1FFF80
0FFF00
07FE00
ENDCHAR
STARTCHAR 00DD
ENCODING 221
SWIDTH 565 0
DWIDTH 22 0
BBX 19 37 2 0
BITMAP
003C00
007C00
007800
00F000
00E000
01C000
038000
000000
000000
000000
FC0FE0
FC0FE0
FC0FE0
FC0FE0
FC0FE0
FC0FE0
FC0FE0
FC0FE0
FC0FE0
FC0FC0
FE1FC0
FF3FC0
FFFFC0
7FFF80
3FFF80
3FFF00
0FFC00
03F800
03F000
03F000
03F000
03F000
03F000
03F000
03F000
03F000
03F000
ENDCHAR
STARTCHAR 00DE
ENCODING 222
SWIDTH 565 0
DWIDTH 22 0
BBX 19 28 2 0
BITMAP
FE0000
FE0000
FE0000
FE0000
FFF800
FFFE00
FFFF00
FFFF80
FFFFC0
FFFFE0
FFBFE0
FE0FE0
FE0FE0
FE0FE0
FE0FE0
FE0FE0
FEFFE0
FEFFE0
FEFFC0
FEFF80
FEFF00
FEFE00
FEF000
FE0000
FE0000
FE0000
FE0000
FE0000
ENDCHAR
STARTCHAR 00DF
ENCODING 223
SWIDTH 591 0
DWIDTH 23 0
BBX 22 28 0 0
BITMAP
006000
03FE00
0FFF00
1FFF80
1FFFC0
3FFFC0
3F8FC0
3F0FC0
3F0FC0
FF0F80
FF1F00
FF3F00
FF3FC0
FF3FE0
3F0FF0
3F07F8
3F03F8
3F01FC
3F00FC
3F00FC
3F00FC
3F01FC
3F3FFC
3F3FF8
3F3FF8
3F3FF0
3F3FE0
3F3F80
ENDCHAR
STARTCHAR 00E0
ENCODING 224
SWIDTH 540 0
DWIDTH 21 0
BBX 19 28 1 0
BITMAP
07C000
03C000
01E000
00E000
007000
007000
003800
000000
00E000
07FC00
1FFF00
3FFF80
3FFFC0
7FFFC0
7FFFE0
FE0FE0
FC07E0
FC07E0
FC07E0
FC07E0
FE07E0
FF07E0
7FF7E0
7FF7E0
3FF7E0
1FF7E0
0FF7E0
03F7E0
ENDCHAR
STARTCHAR 00E1
ENCODING 225
SWIDTH 540 0
DWIDTH 21 0
BBX 19 28 1 0
BITMAP
003E00
003C00
007800
00F000
00E000
01E000
01C000
000000
00E000
07FC00
1FFF00
3FFF80
3FFFC0
7FFFC0
7FFFE0
FE0FE0
FC07E0
FC07E0
FC07E0
FC07E0
FE07E0
FF07E0
7FF7E0
7FF7E0
3FF7E0
1FF7E0
0FF7E0
03F7E0
ENDCHAR
STARTCHAR 00E2
ENCODING 226
SWIDTH 540 0
DWIDTH 21 0
BBX 19 28 1 0
BITMAP
01F800
01F800
03FC00
039C00
070E00
060E00
0E0700
000000
00E000
07FC00
1FFF00
3FFF80
3FFFC0
7FFFC0
7FFFE0
FE0FE0
FC07E0
FC07E0
FC07E0
FC07E0
FE07E0
FF07E0
7FF7E0
7FF7E0
3FF7E0
1FF7E0
0FF7E0
03F7E0
ENDCHAR
STARTCHAR 00E3
ENCODING 227
SWIDTH 540 0
DWIDTH 21 0
BBX 19 28 1 0
BITMAP
000300
038700
07FE00
07FE00
0E7C00
0C0000
000000
000000
00E000
07FC00
1FFF00
3FFF80
3FFFC0
7FFFC0
7FFFE0
FE0FE0
FC07E0
FC07E0
FC07E0
FC07E0
FE07E0
FF07E0
7FF7E0
7FF7E0
3FF7E0
1FF7E0
0FF7E0
03F7E0
ENDCHAR
STARTCHAR 00E4
ENCODING 228
SWIDTH 540 0
DWIDTH 21 0
BBX 19 27 1 0
BITMAP
071E00
0F9F00
0F9F00
079E00
020400
000000
000000
00E000
07FC00
1FFF00
3FFF80
3FFFC0
7FFFC0
7FFFE0
FE0FE0
FC07E0
FC07E0
FC07E0
FC07E0
FE07E0
FF07E0
7FF7E0
7FF7E0
3FF7E0
1FF7E0
0FF7E0
03F7E0
ENDCHAR
STARTCHAR 00E5
ENCODING 229
SWIDTH 540 0
DWIDTH 21 0
BBX 19 31 1 0
BITMAP
00F800
01FC00
03FE00
078E00
070600
070600
078E00
03FE00
01FC00
00F800
000000
00E000
07FC00
1FFF00
3FFF80
3FFFC0
7FFFC0
7FFFE0
FE0FE0
FC07E0
FC07E0
FC07E0
FC07E0
FE07E0
FF07E0
7FF7E0
7FF7E0
3FF7E0
1FF7E0
0FF7E0
03F7E0
ENDCHAR
STARTCHAR 00E6
ENCODING 230
SWIDTH 822 0
DWIDTH 32 0
BBX 32 20 0 0
BITMAP
01E00F00
1FFC3FE0
3FFEFFF8
3FFFFFFC
3FFFFFFC
1C1FF8FE
000FF07E
00FFE1FF
07FFC7FE
1FFFCFF8
3FFFC7E0
7F8FC700
7E0FE018
FC0FE03E
FC1FF87F
FF7FFFFF
7FFFFFFE
7FFEFFFC
3FF87FF0
1FE03FE0
ENDCHAR
STARTCHAR 00E7
ENCODING 231
SWIDTH 385 0
DWIDTH 15 0
BBX 14 28 1 -9
BITMAP
03FC
0FFC
1FFC
3FFC
7FFC
7FFC
FF00
FE00
FC00
FC00
FC00
FE00
FF00
7FFC
7FFC
3FFC
1FFC
07FC
01FC
0180
0180
01F0
01F8
0038
0038
1C78
1FF8
0FF0
ENDCHAR
STARTCHAR 00E8
ENCODING 232
SWIDTH 540 0
DWIDTH 21 0
BBX 20 28 1 0
BITMAP
07C000
03C000
01E000
00E000
00F000
007000
003800
000000
004000
07FC00
0FFF00
1FFF80
3FFFC0
7F0FC0
7E1FE0
FC3F80
FCFF00
FDFC00
FCF800
FC6180
FC43E0
FE07F0
7FFFE0
7FFFE0
3FFFC0
1FFF80
0FFF00
03FC00
ENDCHAR
STARTCHAR 00E9
ENCODING 233
SWIDTH 540 0
DWIDTH 21 0
BBX 20 28 1 0
BITMAP
003E00
007C00
007800
00F000
00E000
01C000
01C000
000000
004000
07FC00
0FFF00
1FFF80
3FFFC0
7F0FC0
7E1FE0
FC3F80
FCFF00
FDFC00
FCF800
FC6180
FC43E0
FE07F0
7FFFE0
7FFFE0
3FFFC0
1FFF80
0FFF00
03FC00
ENDCHAR
STARTCHAR 00EA
ENCODING 234
SWIDTH 540 0
DWIDTH 21 0
BBX 20 28 1 0
BITMAP
01F800
03F800
03FC00
079C00
071E00
0E0E00
0E0700
000000
004000
07FC00
0FFF00
1FFF80
3FFFC0
7F0FC0
7E1FE0
FC3F80
FCFF00
FDFC00
FCF800
FC6180
FC43E0
FE07F0
7FFFE0
7FFFE0
3FFFC0
1FFF80
0FFF00
03FC00
ENDCHAR
STARTCHAR 00EB
ENCODING 235
SWIDTH 540 0
DWIDTH 21 0
BBX 20 27 1 0
BITMAP
071E00
0F9E00
0F9F00
0F9E00
020400
000000
000000
004000
07FC00
0FFF00
1FFF80
3FFFC0
7F0FC0
7E1FE0
FC3F80
FCFF00
FDFC00
FCF800
FC6180
FC43E0
FE07F0
7FFFE0
7FFFE0
3FFFC0
1FFF80
0FFF00
03FC00
ENDCHAR
STARTCHAR 00EC
ENCODING 236
SWIDTH 231 0
DWIDTH 9 0
BBX 8 28 0 0
BITMAP
F8
78
3C
1C
1E
0E
07
00
00
3F
3F
3F
3F
3F
3F
3F
3F
3F
3F
3F
3F
3F
3F
3F
3F
3F
3F
3F
ENDCHAR
STARTCHAR 00ED
ENCODING 237
SWIDTH 231 0
DWIDTH 9 0
BBX 8 28 2 0
BITMAP
1F
3E
3C
78
70
E0
E0
00
00
FC
FC
FC
FC
FC
FC
FC
FC
FC
FC
FC
FC
FC
FC
FC
FC
FC
FC
FC
ENDCHAR
STARTCHAR 00EE
ENCODING 238
SWIDTH 231 0
DWIDTH 9 0
BBX 12 28 -1 0
BITMAP
1F80
1F80
3FC0
39C0
71E0
E0E0
E070
0000
0000
1F80
1F80
1F80
1F80
1F80
1F80
1F80
1F80
1F80
1F80
1F80
1F80
1F80
1F80
1F80
1F80
1F80
1F80
1F80
ENDCHAR
STARTCHAR 00EF
ENCODING 239
SWIDTH 231 0
DWIDTH 9 0
BBX 12 27 -1 0
BITMAP
71E0
F9F0
F9F0
F9E0
2040
0000
0000
0000
1F80
1F80
1F80
1F80
1F80
1F80
1F80
1F80
1F80
1F80
1F80
1F80
1F80
1F80
1F80
1F80
1F80
1F80
1F80
ENDCHAR
STARTCHAR 00F0
ENCODING 240
SWIDTH 514 0
DWIDTH 20 0
BBX 19 27 1 0
BITMAP
0FC000
07EE00
07FE00
03FE00
1FF800
1FF800
0CFC00
00FE00
007E00
077F00
1FBF80
3FDF80
7FDFC0
7FEFC0
FE0FC0
FE07E0
FC07E0
FC07E0
FC07E0
FC07E0
FE0FC0
7FFFC0
7FFFC0
3FFF80
1FFF00
0FFE00
07FC00
ENDCHAR
STARTCHAR 00F1
ENCODING 241
SWIDTH 514 0
DWIDTH 20 0
BBX 17 28 2 0
BITMAP
000C00
070C00
0FFC00
1FF800
18F000
380000
000000
000000
018000
0FF800
3FFC00
3FFE00
7FFF00
FFFF00
FE3F80
FC1F80
FC1F80
FC1F80
FC1F80
FC1F80
FC1F80
FC1F80
FC1F80
FC1F80
FC1F80
FC1F80
FC1F80
FC1F80
ENDCHAR
STARTCHAR 00F2
ENCODING 242
SWIDTH 540 0
DWIDTH 21 0
BBX 19 28 1 0
BITMAP
07C000
03C000
01E000
01E000
00F000
007000
003800
000000
00E000
07FC00
0FFF00
1FFF80
3FFFC0
7FFFC0
7FBFE0
FE0FE0
FE07E0
FC07E0
FC07E0
FC07E0
FE07E0
FF0FE0
7FFFE0
7FFFC0
3FFF80
1FFF80
0FFE00
03FC00
ENDCHAR
STARTCHAR 00F3
ENCODING 243
SWIDTH 540 0
DWIDTH 21 0
BBX 19 28 1 0
BITMAP
003E00
007C00
007800
00F000
00E000
01C000
018000
000000
00E000
07FC00
0FFF00
1FFF80
3FFFC0
7FFFC0
7FBFE0
FE0FE0
FE07E0
FC07E0
FC07E0
FC07E0
FE07E0
FF0FE0
7FFFE0
7FFFC0
3FFF80
1FFF80
0FFE00
03FC00
ENDCHAR
STARTCHAR 00F4
ENCODING 244
SWIDTH 540 0
DWIDTH 21 0
BBX 19 28 1 0
BITMAP
01F000
03F800
03FC00
079C00
071E00
0E0E00
0C0700
000000
00E000
07FC00
0FFF00
1FFF80
3FFFC0
7FFFC0
7FBFE0
FE0FE0
FE07E0
FC07E0
FC07E0
FC07E0
FE07E0
FF0FE0
7FFFE0
7FFFC0
3FFF80
1FFF80
0FFE00
03FC00
ENDCHAR
STARTCHAR 00F5
ENCODING 245
SWIDTH 540 0
DWIDTH 21 0
BBX 19 28 1 0
BITMAP
000300
038600
07FE00
0FFE00
0E7C00
0C0000
000000
000000
00E000
07FC00
0FFF00
1FFF80
3FFFC0
7FFFC0
7FBFE0
FE0FE0
FE07E0
FC07E0
FC07E0
FC07E0
FE07E0
FF0FE0
7FFFE0
7FFFC0
3FFF80
1FFF80
0FFE00
03FC00
ENDCHAR
STARTCHAR 00F6
ENCODING 246
SWIDTH 540 0
DWIDTH 21 0
BBX 19 27 1 0
BITMAP
071E00
0F9E00
0F9E00
0F9E00
020400
000000
000000
00E000
07FC00
0FFF00
1FFF80
3FFFC0
7FFFC0
7FBFE0
FE0FE0
FE07E0
FC07E0
FC07E0
FC07E0
FE07E0
FF0FE0
7FFFE0
7FFFC0
3FFF80
1FFF80
0FFE00
03FC00
ENDCHAR
STARTCHAR 00F7
ENCODING 247
SWIDTH 822 0
DWIDTH 32 0
BBX 23 21 5 1
BITMAP
007800
00FC00
00FC00
00FC00
007C00
003800
000000
000000
FFFFFE
FFFFFE
FFFFFE
FFFFFE
FFFFFE
000000
000000
007800
00FC00
00FC00
00FC00
00FC00
007800
ENDCHAR
STARTCHAR 00F8
ENCODING 248
SWIDTH 540 0
DWIDTH 21 0
BBX 19 23 1 -2
BITMAP
0000C0
00E1E0
07FDE0
0FFFE0
1FFFC0
3FFFC0
7FFFC0
7F1FE0
FE3FE0
FC7FE0
FCF7E0
FCF3E0
FDE7E0
FFC7E0
FF8FE0
7FBFE0
7FFFC0
3FFF80
7FFF80
7FFF00
F3FC00
700000
200000
ENDCHAR
STARTCHAR 00F9
ENCODING 249
SWIDTH 514 0
DWIDTH 20 0
BBX 17 28 2 0
BITMAP
1F0000
0F8000
078000
03C000
01C000
00E000
006000
000000
000000
FC1F80
FC1F80
FC1F80
FC1F80
FC1F80
FC1F80
FC1F80
FC1F80
FC1F80
FC1F80
FC1F80
FC1F80
FC1F80
FFFF80
FFFF00
7FFF00
3FFE00
1FFC00
0FF000
ENDCHAR
STARTCHAR 00FA
ENCODING 250
SWIDTH 514 0
DWIDTH 20 0
BBX 17 28 2 0
BITMAP
007800
00F000
00F000
01E000
03C000
038000
070000
000000
000000
FC1F80
FC1F80
FC1F80
FC1F80
FC1F80
FC1F80
FC1F80
FC1F80
FC1F80
FC1F80
FC1F80
FC1F80
FC1F80
FFFF80
FFFF00
7FFF00
3FFE00
1FFC00
0FF000
ENDCHAR
STARTCHAR 00FB
ENCODING 251
SWIDTH 514 0
DWIDTH 20 0
BBX 17 28 2 0
BITMAP
03E000
07F000
07F000
0F7800
0E3800
1C1C00
380C00
000000
000000
FC1F80
FC1F80
FC1F80
FC1F80
FC1F80
FC1F80
FC1F80
FC1F80
FC1F80
FC1F80
FC1F80
FC1F80
FC1F80
FFFF80
FFFF00
7FFF00
3FFE00
1FFC00
0FF000
ENDCHAR
STARTCHAR 00FC
ENCODING 252
SWIDTH 514 0
DWIDTH 20 0
BBX 17 27 2 0
BITMAP
1E3C00
1E7C00
1F7C00
1E3C00
041800
000000
000000
000000
FC1F80
FC1F80
FC1F80
FC1F80
FC1F80
FC1F80
FC1F80
FC1F80
FC1F80
FC1F80
FC1F80
FC1F80
FC1F80
FFFF80
FFFF00
7FFF00
3FFE00
1FFC00
0FF000
ENDCHAR
STARTCHAR 00FD
ENCODING 253
SWIDTH 514 0
DWIDTH 20 0
BBX 17 36 2 -8
BITMAP
007800
00F000
00F000
01E000
03C000
038000
070000
000000
000000
FC1F80
FC1F80
FC1F80
FC1F80
FC1F80
FC1F80
FC1F80
FC1F80
FC1F80
FC1F80
FC1F80
FC1F80
FC1F80
FE7F80
FFFF00
7FFF00
3FFE00
1FFC00
0FF000
07E000
07E000
07E000
07E000
07E000
07E000
07E000
07E000
ENDCHAR
STARTCHAR 00FE
ENCODING 254
SWIDTH 540 0
DWIDTH 21 0
BBX 19 35 2 -8
BITMAP
FC0000
FC0000
FC0000
FC0000
FC0000
FC0000
FC0000
FCE000
FFFC00
FFFE00
FFFF00
FFFF80
FFFFC0
FFFFC0
FE0FE0
FC0FE0
FC07E0
FC07E0
FC07E0
FC0FE0
FC1FC0
FDFFC0
FDFFC0
FDFF80
FDFF00
FDFE00
FDF800
FC0000
FC0000
FC0000
FC0000
FC0000
FC0000
FC0000
FC0000
ENDCHAR
STARTCHAR 00FF
ENCODING 255
SWIDTH 514 0
DWIDTH 20 0
BBX 17 35 2 -8
BITMAP
1E3C00
1E7C00
1F7C00
1E3C00
041800
000000
000000
000000
FC1F80
FC1F80
FC1F80
FC1F80
FC1F80
FC1F80
FC1F80
FC1F80
FC1F80
FC1F80
FC1F80
FC1F80
FC1F80
FE7F80
FFFF00
7FFF00
3FFE00
1FFC00
0FF000
07E000
07E000
07E000
07E000
07E000
07E000
07E000
07E000
ENDCHAR
STARTCHAR 0102
ENCODING 258
SWIDTH 617 0
DWIDTH 24 0
BBX 21 35 2 0
BITMAP
0E0300
060700
078E00
07FE00
03FC00
006000
000000
00F000
07FE00
0FFF80
1FFFC0
3FFFC0
7FFFE0
7FFFF0
FF0FF0
FE07F0
FE03F0
FE03F0
FE03F8
FEFFF8
FEFFF8
FEFFF8
FEFFF8
FEFFF8
FEFFF8
FE03F8
FE03F8
FE03F8
FE03F8
FE03F8
FE03F8
FE03F8
FE03F8
FE03F8
FE03F8
ENDCHAR
STARTCHAR 0103
ENCODING 259
SWIDTH 540 0
DWIDTH 21 0
BBX 19 28 1 0
BITMAP
0C0700
0E0700
070E00
07FE00
03FC00
01F800
000000
000000
00E000
07FC00
1FFF00
3FFF80
3FFFC0
7FFFC0
7FFFE0
FE0FE0
FC07E0
FC07E0
FC07E0
FC07E0
FE07E0
FF07E0
7FF7E0
7FF7E0
3FF7E0
1FF7E0
0FF7E0
03F7E0
ENDCHAR
STARTCHAR 0106
ENCODING 262
SWIDTH 488 0
DWIDTH 19 0
BBX 18 37 1 0
BITMAP
000F80
000F00
001F00
001E00
003C00
003800
007000
000000
000000
000000
003FC0
01FFC0
03FFC0
0FFFC0
1FFFC0
1FFFC0
3FF800
7FC000
7F8000
7F0000
FF0000
FE0000
FE0000
FE0000
FE0000
FE0000
FF0000
7F0000
7F8000
7FE000
3FFE00
1FFFC0
0FFFC0
07FFC0
03FFC0
00FFC0
001FC0
ENDCHAR
STARTCHAR 0107
ENCODING 263
SWIDTH 385 0
DWIDTH 15 0
BBX 14 28 1 0
BITMAP
007C
00F8
00F0
01E0
01C0
0380
0300
0000
0000
03FC
0FFC
1FFC
3FFC
7FFC
7FFC
FF00
FE00
FC00
FC00
FC00
FE00
FF00
7FFC
7FFC
3FFC
1FFC
07FC
01FC
ENDCHAR
STARTCHAR 010C
ENCODING 268
SWIDTH 488 0
DWIDTH 19 0
BBX 18 37 1 0
BITMAP
0381C0
03C380
01C780
00E700
00FF00
007E00
007E00
000000
000000
000000
003FC0
01FFC0
03FFC0
0FFFC0
1FFFC0
1FFFC0
3FF800
7FC000
7F8000
7F0000
FF0000
FE0000
FE0000
FE0000
FE0000
FE0000
FF0000
7F0000
7F8000
7FE000
3FFE00
1FFFC0
0FFFC0
07FFC0
03FFC0
00FFC0
001FC0
ENDCHAR
STARTCHAR 010D
ENCODING 269
SWIDTH 385 0
DWIDTH 15 0
BBX 14 28 1 0
BITMAP
1C1C
0E1C
0F38
07F8
07F0
03F0
03E0
0000
0000
03FC
0FFC
1FFC
3FFC
7FFC
7FFC
FF00
FE00
FC00
FC00
FC00
FE00
FF00
7FFC
7FFC
3FFC
1FFC
07FC
01FC
ENDCHAR
STARTCHAR 0110
ENCODING 272
SWIDTH 642 0
DWIDTH 25 0
BBX 24 27 0 0
BITMAP
3FFC00
3FFF80
3FFFC0
3FFFF0
3FFFF8
3FFFF8
3F9FFC
3F83FE
3F81FE
3F80FF
3F807F
FFF07F
FFF07F
FFF07F
FFF07F
3F807F
3F80FF
3F80FE
3F81FE
3F83FE
3FBFFC
3FBFF8
3FBFF8
3FBFF0
3FBFC0
3FBF80
3FBC00
ENDCHAR
STARTCHAR 0111
ENCODING 273
SWIDTH 565 0
DWIDTH 22 0
BBX 21 27 1 0
BITMAP
0007E0
0007E0
007FF8
007FF8
007FF8
0007E0
0007E0
00C7E0
07F7E0
1FF7E0
3FF7E0
3FF7E0
7FF7E0
7FF7E0
FE07E0
FE07E0
FC07E0
FC07E0
FC07E0
FE07E0
FE0FE0
7FFFC0
7FFFC0
3FFF80
1FFF80
0FFF00
07FC00
ENDCHAR
STARTCHAR 011E
ENCODING 286
SWIDTH 771 0
DWIDTH 30 0
BBX 28 36 1 0
BITMAP
00E07000
00E07000
0078E000
007FE000
003FC000
00060000
00000000
00000000
000F8000
007FF000
01FFFC00
07FFFF00
0FFFFF80
1FFFFF00
3FFFFE00
3FE07C00
7FC01800
7F800000
7F000000
FF03FFF0
FE03FFF0
FE03FFF0
FE03FFF0
FE03FFF0
FE03FFF0
FF000FE0
7F000FE0
7F801FE0
7FC03FC0
3FF8FFC0
1FFFFF80
1FFFFF80
0FFFFF00
07FFFE00
01FFF800
007FE000
ENDCHAR
STARTCHAR 011F
ENCODING 287
SWIDTH 540 0
DWIDTH 21 0
BBX 19 37 1 -9
BITMAP
0C0700
0E0700
0F0E00
07FE00
03FC00
01F800
000000
000000
00E000
07FC00
1FFF00
3FFF80
3FFFC0
7FFFC0
7FFFE0
FE0FE0
FC07E0
FC07E0
FC07E0
FC07E0
FE07E0
FF07E0
7FF7E0
7FF7E0
3FF7E0
1FF7E0
0FF7E0
03F7E0
0007E0
0007E0
181FE0
1FFFC0
1FFFC0
1FFF80
1FFF00
1FFE00
01E000
ENDCHAR
STARTCHAR 0128
ENCODING 296
SWIDTH 257 0
DWIDTH 10 0
BBX 12 36 0 0
BITMAP
0070
3C60
7FE0
FFC0
C380
0000
0000
0000
0000
3F80
3F80
3F80
3F80
3F80
3F80
3F80
3F80
3F80
3F80
3F80
3F80
3F80
3F80
3F80
3F80
3F80
3F80
3F80
3F80
3F80
3F80
3F80
3F80
3F80
3F80
3F80
ENDCHAR
STARTCHAR 0129
ENCODING 297
SWIDTH 231 0
DWIDTH 9 0
BBX 12 28 -1 0
BITMAP
0030
3830
7FE0
7FE0
E7C0
C000
0000
0000
0000
1F80
1F80
1F80
1F80
1F80
1F80
1F80
1F80
1F80
1F80
1F80
1F80
1F80
1F80
1F80
1F80
1F80
1F80
1F80
ENDCHAR
STARTCHAR 0130
ENCODING 304
SWIDTH 257 0
DWIDTH 10 0
BBX 7 36 2 0
BITMAP
38
7C
7C
7C
38
00
00
00
00
FE
FE
FE
FE
FE
FE
FE
FE
FE
FE
FE
FE
FE
FE
FE
FE
FE
FE
FE
FE
FE
FE
FE
FE
FE
FE
FE
ENDCHAR
STARTCHAR 0131
ENCODING 305
SWIDTH 231 0
DWIDTH 9 0
BBX 6 19 2 0
BITMAP
FC
FC
FC
FC
FC
FC
FC
FC
FC
FC
FC
FC
FC
FC
FC
FC
FC
FC
FC
ENDCHAR
STARTCHAR 0141
ENCODING 321
SWIDTH 437 0
DWIDTH 17 0
BBX 17 27 0 0
BITMAP
3F8000
3F8000
3F8000
3F8000
3F8000
3F8000
3F8800
3FB800
3FF800
3FF800
3FF800
3FF000
3FC000
FF8000
FF8000
FF8000
FF8000
FF8000
3F8000
3F8000
3FE000
1FFF80
1FFF80
1FFF80
0FFF80
07FF80
00FF80
ENDCHAR
STARTCHAR 0142
ENCODING 322
SWIDTH 257 0
DWIDTH 10 0
BBX 10 27 0 0
BITMAP
3F00
3F00
3F00
3F00
3F00
3F00
3F00
3F00
3F40
3FC0
3FC0
3FC0
3F80
7F00
FF00
FF00
FF00
BF00
3F00
3F00
3F00
3F00
3F00
3F00
3F00
3F00
3F00
ENDCHAR
STARTCHAR 0152
ENCODING 338
SWIDTH 1028 0
DWIDTH 40 0
BBX 38 28 1 0
BITMAP
000E000000
00FFE001FC
01FFF80FFC
07FFFC3FFC
0FFFFF7FFC
1FFFFFFFFC
3FFFFFFFFC
3FF07FFF00
7FC03FFC00
7F801FF800
7F000FF000
FF0007FFFC
FE0007FFFC
FE0007FFFC
FE0007FFFC
FE0007FFFC
FE0007FFFC
FF000FE000
7F000FF000
7F801FF800
7FC03FFC00
3FF0FFFF80
1FFFFFFFFC
1FFFFFFFFC
0FFFFE7FFC
07FFFC3FFC
01FFF80FFC
007FE001FC
ENDCHAR
STARTCHAR 0153
ENCODING 339
SWIDTH 874 0
DWIDTH 34 0
BBX 33 20 1 0
BITMAP
00E0078000
07FC1FF000
0FFE7FF800
1FFFFFFC00
3FFFFFFE00
7FFFFC7F00
7FBFF0FF00
FE0FF1FE00
FE07E7F800
FC07E7F000
FC07E7C000
FC07E38E00
FE07F00F80
FF0FF83F80
7FFFFEFF80
7FFFFFFF00
3FFFFFFE00
1FFFFFFC00
0FFE3FF800
03FC1FE000
ENDCHAR
STARTCHAR 015E
ENCODING 350
SWIDTH 514 0
DWIDTH 20 0
BBX 19 36 1 -9
BITMAP
07FF80
1FFF80
3FFF80
7FFF80
7FFF80
FFFF80
FF0000
FE0000
FF0000
7F8000
7FE000
3FF800
1FFE00
0FFF00
07FF80
01FFC0
007FC0
003FC0
001FE0
001FE0
FFFFE0
FFFFC0
FFFFC0
FFFFC0
FFFF80
FFFF00
FFF800
006000
006000
007C00
00FE00
000E00
000E00
071E00
07FE00
03F800
ENDCHAR
STARTCHAR 015F
ENCODING 351
SWIDTH 437 0
DWIDTH 17 0
BBX 15 28 1 -9
BITMAP
1FFC
3FFC
7FFC
7FFC
7FFC
7E00
7E00
7FC0
3FF0
1FF8
07FC
01FE
00FE
00FE
FFFE
FFFE
FFFC
FFF8
FFE0
0180
0180
01F0
03F8
0038
0038
1C78
1FF8
0FE0
ENDCHAR
STARTCHAR 0160
ENCODING 352
SWIDTH 514 0
DWIDTH 20 0
BBX 19 37 1 0
BITMAP
0C0600
0E0E00
071C00
07BC00
03F800
03F800
01F000
000000
000000
000000
07FF80
1FFF80
3FFF80
7FFF80
7FFF80
FFFF80
FF0000
FE0000
FF0000
7F8000
7FE000
3FF800
1FFE00
0FFF00
07FF80
01FFC0
007FC0
003FC0
001FE0
001FE0
FFFFE0
FFFFC0
FFFFC0
FFFFC0
FFFF80
FFFF00
FFF800
ENDCHAR
STARTCHAR 0161
ENCODING 353
SWIDTH 437 0
DWIDTH 17 0
BBX 15 28 1 0
BITMAP
3838
1C78
1EF0
0EE0
0FE0
07C0
07C0
0000
0000
1FFC
3FFC
7FFC
7FFC
7FFC
7E00
7E00
7FC0
3FF0
1FF8
07FC
01FE
00FE
00FE
FFFE
FFFE
FFFC
FFF8
FFE0
ENDCHAR
STARTCHAR 0168
ENCODING 360
SWIDTH 617 0
DWIDTH 24 0
BBX 20 36 2 0
BITMAP
000300
03E700
07FE00
07FE00
0E1800
000000
000000
000000
000000
FE03F0
FE03F0
FE03F0
FE03F0
FE03F0
FE03F0
FE03F0
FE03F0
FE03F0
FE03F0
FE03F0
FE03F0
FE03F0
FE03F0
FE03F0
FE03F0
FE03F0
FE03F0
FE07F0
FE07F0
FF8FF0
7FFFE0
7FFFE0
3FFFC0
1FFF80
0FFF00
07FE00
ENDCHAR
STARTCHAR 0169
ENCODING 361
SWIDTH 514 0
DWIDTH 20 0
BBX 17 28 2 0
BITMAP
000E00
070C00
0FFC00
1FF800
18F000
180000
000000
000000
000000
FC1F80
FC1F80
FC1F80
FC1F80
FC1F80
FC1F80
FC1F80
FC1F80
FC1F80
FC1F80
FC1F80
FC1F80
FC1F80
FFFF80
FFFF00
7FFF00
3FFE00
1FFC00
0FF000
ENDCHAR
STARTCHAR 0178
ENCODING 376
SWIDTH 565 0
DWIDTH 22 0
BBX 19 36 2 0
BITMAP
060800
0F3E00
1F3E00
1F3E00
0F1C00
000000
000000
000000
000000
FC0FE0
FC0FE0
FC0FE0
FC0FE0
FC0FE0
FC0FE0
FC0FE0
FC0FE0
FC0FE0
FC0FC0
FE1FC0
FF3FC0
FFFFC0
7FFF80
3FFF80
3FFF00
0FFC00
03F800
03F000
03F000
03F000
03F000
03F000
03F000
03F000
03F000
03F000
ENDCHAR
STARTCHAR 017D
ENCODING 381
SWIDTH 514 0
DWIDTH 20 0
BBX 20 37 0 0
BITMAP
0E0700
070700
038E00
03DE00
01FC00
01FC00
00F800
000000
000000
000000
3FFFC0
3FFFF0
3FFFF0
3FFFF0
3FFFF0
3FFFF0
001FE0
001FE0
003FC0
007F80
00FF80
00FF00
01FE00
03FC00
07FC00
07F800
0FF000
1FE000
1FE000
3FC000
7FFFF0
7FFFF0
FFFFF0
FFFFF0
7FFFF0
7FFFF0
1FFFF0
ENDCHAR
STARTCHAR 017E
ENCODING 382
SWIDTH 437 0
DWIDTH 17 0
BBX 16 28 1 0
BITMAP
3838
1C38
1E70
0FF0
0FE0
07E0
07C0
0000
0000
7FFC
7FFE
7FFF
7FFF
7FFF
01FE
01FC
03F8
07F8
0FF0
1FE0
3FC0
7F80
FFFF
FFFF
FFFF
FFFF
FFFF
7FFF
ENDCHAR
STARTCHAR 0192
ENCODING 402
SWIDTH 540 0
DWIDTH 21 0
BBX 21 35 0 -8
BITMAP
000FF8
001FF8
003FF8
003FF8
007FF8
007F00
007E00
007E00
00FE00
00FE00
1FFFF0
1FFFF0
1FFFF0
1FFFF0
1FFFF0
1FFFF0
01FC00
01FC00
01FC00
01F800
01F800
01F800
01F800
03F800
03F800
03F800
03F800
03F000
03F000
07F000
FFF000
FFF000
FFE000
FFC000
FF8000
ENDCHAR
STARTCHAR 01A0
ENCODING 416
SWIDTH 771 0
DWIDTH 30 0
BBX 28 29 1 0
BITMAP
000001F0
000F01F0
00FFF3E0
01FFFFE0
07FFFFC0
0FFFFFC0
1FFFFF80
3FFFFFC0
3FF07FC0
7FC03FE0
7F801FE0
7F000FE0
FF0007F0
FE0007F0
FE0007F0
FE0007F0
FE0007F0
FE0007F0
FF000FF0
7F000FE0
7F801FE0
7FC03FE0
3FF0FFC0
1FFFFF80
1FFFFF80
0FFFFF00
07FFFE00
01FFF800
007FE000
ENDCHAR
STARTCHAR 01A1
ENCODING 417
SWIDTH 540 0
DWIDTH 21 0
BBX 21 22 1 0
BITMAP
0000F8
0000F8
00E1F0
07FDF0
0FFFE0
1FFFE0
3FFFC0
7FFFC0
7FBFE0
FE0FE0
FE07E0
FC07E0
FC07E0
FC07E0
FE07E0
FF0FE0
7FFFE0
7FFFC0
3FFF80
1FFF80
0FFE00
03FC00
ENDCHAR
STARTCHAR 01AF
ENCODING 431
SWIDTH 668 0
DWIDTH 26 0
BBX 25 29 2 0
BITMAP
00000F80
00000F80
FE03FF00
FE03FF00
FE03FE00
FE03FE00
FE03FC00
FE03FC00
FE03F000
FE03F000
FE03F000
FE03F000
FE03F000
FE03F000
FE03F000
FE03F000
FE03F000
FE03F000
FE03F000
FE03F000
FE07F000
FE07F000
FF8FF000
7FFFE000
7FFFE000
3FFFC000
1FFF8000
0FFF0000
07FE0000
ENDCHAR
STARTCHAR 01B0
ENCODING 432
SWIDTH 565 0
DWIDTH 22 0
BBX 22 22 2 0
BITMAP
00007C
0000F8
0000F8
FC1FF0
FC1FF0
FC1FE0
FC1FE0
FC1FC0
FC1F80
FC1F80
FC1F80
FC1F80
FC1F80
FC1F80
FC1F80
FC1F80
FFFF80
FFFF00
7FFF00
3FFE00
1FFC00
0FF000
ENDCHAR
STARTCHAR 02C6
ENCODING 710
SWIDTH 488 0
DWIDTH 19 0
BBX 12 7 4 21
BITMAP
1F00
3F80
3FC0
79C0
71E0
E0E0
C070
ENDCHAR
STARTCHAR 02C7
ENCODING 711
SWIDTH 488 0
DWIDTH 19 0
BBX 11 7 4 21
BITMAP
E0E0
71E0
79C0
3FC0
3F80
1F80
1F00
ENDCHAR
STARTCHAR 02C9
ENCODING 713
SWIDTH 488 0
DWIDTH 19 0
BBX 11 3 4 23
BITMAP
FFE0
FFE0
FFE0
ENDCHAR
STARTCHAR 02D8
ENCODING 728
SWIDTH 488 0
DWIDTH 19 0
BBX 12 6 4 22
BITMAP
C070
E060
E0E0
7FE0
7FC0
1F00
ENDCHAR
STARTCHAR 02D9
ENCODING 729
SWIDTH 488 0
DWIDTH 19 0
BBX 5 5 7 23
BITMAP
30
78
F8
F8
78
ENDCHAR
STARTCHAR 02DA
ENCODING 730
SWIDTH 488 0
DWIDTH 19 0
BBX 10 10 5 21
BITMAP
3F00
7F80
F380
E1C0
C1C0
E1C0
E380
7F80
7F00
1800
ENDCHAR
STARTCHAR 02DB
ENCODING 731
SWIDTH 488 0
DWIDTH 19 0
BBX 7 9 6 -9
BITMAP
18
30
70
70
F0
FE
7E
7E
1E
ENDCHAR
STARTCHAR 02DC
ENCODING 732
SWIDTH 488 0
DWIDTH 19 0
BBX 12 6 4 22
BITMAP
0030
3860
7FE0
FFE0
E7C0
C000
ENDCHAR
STARTCHAR 02DD
ENCODING 733
SWIDTH 488 0
DWIDTH 19 0
BBX 12 7 6 22
BITMAP
3DF0
79E0
79C0
73C0
E380
E700
C600
ENDCHAR
STARTCHAR 0394
ENCODING 916
SWIDTH 694 0
DWIDTH 27 0
BBX 28 28 0 0
BITMAP
003FC000
003FC000
007FE000
007FE000
007FE000
00FFF000
00FFF000
01FFF000
01FFF800
01FBF800
03F9FC00
03F9FC00
03F1FC00
07F0FE00
07F0FE00
07E07E00
0FE07F00
0FE07F00
1FC03F00
1FC03F80
1FC03F80
3F801FC0
3F801FC0
3FFFFFC0
7FFFFFE0
7FFFFFE0
7FFFFFE0
FFFFFFF0
ENDCHAR
STARTCHAR 03A9
ENCODING 937
SWIDTH 797 0
DWIDTH 31 0
BBX 29 29 1 0
BITMAP
000F8000
00FFF800
03FFFE00
07FFFF00
0FFFFF80
1FFFFFC0
1FFCFFE0
3FE03FE0
3FC01FE0
7F800FF0
7F800FF0
7F8007F0
7F0007F0
7F0007F0
7F0007F0
7F0007F0
7F0007F0
3F800FE0
3F800FE0
1FC00FE0
1FC01FC0
0FE03F80
07F07F00
FFF07FF8
FFF07FF8
FFF07FF8
FFF07FF8
FFF07FF8
FFF07FF8
ENDCHAR
STARTCHAR 03BC
ENCODING 956
SWIDTH 617 0
DWIDTH 24 0
BBX 25 29 -1 -8
BITMAP
07E03F80
0FE03F80
0FE03F80
0FE03F00
0FE07F00
0FE07F00
0FE07F00
0FC07F00
1FC07F00
1FC07E00
1FC07E00
1FC0FE00
1FC0FE00
1FC0FE00
3FC1FE00
3FC3FE00
3FFFFC00
3FFFFC00
3FFFFC00
3F7EFC00
7F3CFC00
7F000000
7F000000
7F000000
7F000000
7E000000
7E000000
FE000000
FE000000
ENDCHAR
STARTCHAR 03C0
ENCODING 960
SWIDTH 745 0
DWIDTH 29 0
BBX 29 21 0 0
BITMAP
03FFFFF8
1FFFFFF8
3FFFFFF8
7FFFFFF8
7FFFFFF8
F9FC3F80
F9FC3F80
01F83F80
01F83F00
03F83F00
03F87F00
03F87F00
03F87F00
03F87F00
03F07F00
07F07E00
07F0FE00
07F0FE00
07F0FE00
07F0FE00
07E0FE00
ENDCHAR
STARTCHAR 1EA0
ENCODING 7840
SWIDTH 617 0
DWIDTH 24 0
BBX 21 38 2 -10
BITMAP
00F000
07FE00
0FFF80
1FFFC0
3FFFC0
7FFFE0
7FFFF0
FF0FF0
FE07F0
FE03F0
FE03F0
FE03F8
FEFFF8
FEFFF8
FEFFF8
FEFFF8
FEFFF8
FEFFF8
FE03F8
FE03F8
FE03F8
FE03F8
FE03F8
FE03F8
FE03F8
FE03F8
FE03F8
FE03F8
000000
000000
000000
01F800
01FC00
03FC00
03FC00
03FC00
01F800
00F000
ENDCHAR
STARTCHAR 1EA1
ENCODING 7841
SWIDTH 540 0
DWIDTH 21 0
BBX 19 30 1 -10
BITMAP
00E000
07FC00
1FFF00
3FFF80
3FFFC0
7FFFC0
7FFFE0
FE0FE0
FC07E0
FC07E0
FC07E0
FC07E0
FE07E0
FF07E0
7FF7E0
7FF7E0
3FF7E0
1FF7E0
0FF7E0
03F7E0
000000
000000
000000
01F800
03F800
03FC00
03FC00
03FC00
01F800
00F000
ENDCHAR
STARTCHAR 1EA2
ENCODING 7842
SWIDTH 617 0
DWIDTH 24 0
BBX 21 37 2 0
BITMAP
00F800
01FC00
018C00
008C00
001C00
007C00
007000
006000
000000
00F000
07FE00
0FFF80
1FFFC0
3FFFC0
7FFFE0
7FFFF0
FF0FF0
FE07F0
FE03F0
FE03F0
FE03F8
FEFFF8
FEFFF8
FEFFF8
FEFFF8
FEFFF8
FEFFF8
FE03F8
FE03F8
FE03F8
FE03F8
FE03F8
FE03F8
FE03F8
FE03F8
FE03F8
FE03F8
ENDCHAR
STARTCHAR 1EA3
ENCODING 7843
SWIDTH 540 0
DWIDTH 21 0
BBX 19 30 1 0
BITMAP
00F000
01F800
03FC00
039C00
001C00
007C00
007800
006000
006000
000000
00E000
07FC00
1FFF00
3FFF80
3FFFC0
7FFFC0
7FFFE0
FE0FE0
FC07E0
FC07E0
FC07E0
FC07E0
FE07E0
FF07E0
7FF7E0
7FF7E0
3FF7E0
1FF7E0
0FF7E0
03F7E0
ENDCHAR
STARTCHAR 1EA4
ENCODING 7844
SWIDTH 617 0
DWIDTH 24 0
BBX 21 44 2 0
BITMAP
007C00
00F800
00F000
01E000
01C000
03C000
038000
000000
00F800
01F800
01FC00
03DC00
039E00
070E00
060700
000000
00F000
07FE00
0FFF80
1FFFC0
3FFFC0
7FFFE0
7FFFF0
FF0FF0
FE07F0
FE03F0
FE03F0
FE03F8
FEFFF8
FEFFF8
FEFFF8
FEFFF8
FEFFF8
FEFFF8
FE03F8
FE03F8
FE03F8
FE03F8
FE03F8
FE03F8
FE03F8
FE03F8
FE03F8
FE03F8
ENDCHAR
STARTCHAR 1EA5
ENCODING 7845
SWIDTH 540 0
DWIDTH 21 0
BBX 19 36 1 0
BITMAP
00F800
00F000
01E000
01E000
03C000
038000
070000
000000
01F800
01F800
03FC00
039C00
070E00
060E00
0E0700
000000
00E000
07FC00
1FFF00
3FFF80
3FFFC0
7FFFC0
7FFFE0
FE0FE0
FC07E0
FC07E0
FC07E0
FC07E0
FE07E0
FF07E0
7FF7E0
7FF7E0
3FF7E0
1FF7E0
0FF7E0
03F7E0
ENDCHAR
STARTCHAR 1EA6
ENCODING 7846
SWIDTH 617 0
DWIDTH 24 0
BBX 21 44 2 0
BITMAP
01E000
01F000
00F000
007800
003C00
001C00
000E00
000000
00F800
01F800
01FC00
03DC00
039E00
070E00
060700
000000
00F000
07FE00
0FFF80
1FFFC0
3FFFC0
7FFFE0
7FFFF0
FF0FF0
FE07F0
FE03F0
FE03F0
FE03F8
FEFFF8
FEFFF8
FEFFF8
FEFFF8
FEFFF8
FEFFF8
FE03F8
FE03F8
FE03F8
FE03F8
FE03F8
FE03F8
FE03F8
FE03F8
FE03F8
FE03F8
ENDCHAR
STARTCHAR 1EA7
ENCODING 7847
SWIDTH 540 0
DWIDTH 21 0
BBX 19 36 1 0
BITMAP
01F000
00F000
007800
007800
003C00
001C00
000E00
000000
01F800
01F800
03FC00
039C00
070E00
060E00
0E0700
000000
00E000
07FC00
1FFF00
3FFF80
3FFFC0
7FFFC0
7FFFE0
FE0FE0
FC07E0
FC07E0
FC07E0
FC07E0
FE07E0
FF07E0
7FF7E0
7FF7E0
3FF7E0
1FF7E0
0FF7E0
03F7E0
ENDCHAR
STARTCHAR 1EA8
ENCODING 7848
SWIDTH 617 0
DWIDTH 24 0
BBX 21 44 2 0
BITMAP
000380
0007C0
000FE0
000C60
000060
0001E0
0003C0
000380
00FB00
01F800
01FC00
03DC00
039E00
070E00
060700
000000
00F000
07FE00
0FFF80
1FFFC0
3FFFC0
7FFFE0
7FFFF0
FF0FF0
FE07F0
FE03F0
FE03F0
FE03F8
FEFFF8
FEFFF8
FEFFF8
FEFFF8
FEFFF8
FEFFF8
FE03F8
FE03F8
FE03F8
FE03F8
FE03F8
FE03F8
FE03F8
FE03F8
FE03F8
FE03F8
ENDCHAR
STARTCHAR 1EA9
ENCODING 7849
SWIDTH 540 0
DWIDTH 21 0
BBX 19 36 1 0
BITMAP
0007C0
000FC0
001CE0
000C60
0000E0
0003C0
000380
000300
01F800
01F800
03FC00
039C00
070E00
060E00
0E0700
000000
00E000
07FC00
1FFF00
3FFF80
3FFFC0
7FFFC0
7FFFE0
FE0FE0
FC07E0
FC07E0
FC07E0
FC07E0
FE07E0
FF07E0
7FF7E0
7FF7E0
3FF7E0
1FF7E0
0FF7E0
03F7E0
ENDCHAR
STARTCHAR 1EAA
ENCODING 7850
SWIDTH 617 0
DWIDTH 24 0
BBX 21 42 2 0
BITMAP
000180
01FF80
03FF00
03FF00
070000
000000
00F800
01F800
01FC00
03DC00
039E00
070E00
060700
000000
00F000
07FE00
0FFF80
1FFFC0
3FFFC0
7FFFE0
7FFFF0
FF0FF0
FE07F0
FE03F0
FE03F0
FE03F8
FEFFF8
FEFFF8
FEFFF8
FEFFF8
FEFFF8
FEFFF8
FE03F8
FE03F8
FE03F8
FE03F8
FE03F8
FE03F8
FE03F8
FE03F8
FE03F8
FE03F8
ENDCHAR
STARTCHAR 1EAB
ENCODING 7851
SWIDTH 540 0
DWIDTH 21 0
BBX 19 35 1 0
BITMAP
000180
01F380
03FF00
03FF00
070C00
000000
000000
01F800
01F800
03FC00
039C00
070E00
060E00
0E0700
000000
00E000
07FC00
1FFF00
3FFF80
3FFFC0
7FFFC0
7FFFE0
FE0FE0
FC07E0
FC07E0
FC07E0
FC07E0
FE07E0
FF07E0
7FF7E0
7FF7E0
3FF7E0
1FF7E0
0FF7E0
03F7E0
ENDCHAR
STARTCHAR 1EAC
ENCODING 7852
SWIDTH 617 0
DWIDTH 24 0
BBX 21 46 2 -10
BITMAP
00F800
01F800
01FC00
03DC00
039E00
070E00
060700
000000
00F000
07FE00
0FFF80
1FFFC0
3FFFC0
7FFFE0
7FFFF0
FF0FF0
FE07F0
FE03F0
FE03F0
FE03F8
FEFFF8
FEFFF8
FEFFF8
FEFFF8
FEFFF8
FEFFF8
FE03F8
FE03F8
FE03F8
FE03F8
FE03F8
FE03F8
FE03F8
FE03F8
FE03F8
FE03F8
000000
000000
000000
01F800
01FC00
03FC00
03FC00
03FC00
01F800
00F000
ENDCHAR
STARTCHAR 1EAD
ENCODING 7853
SWIDTH 540 0
DWIDTH 21 0
BBX 19 38 1 -10
BITMAP
01F800
01F800
03FC00
039C00
070E00
060E00
0E0700
000000
00E000
07FC00
1FFF00
3FFF80
3FFFC0
7FFFC0
7FFFE0
FE0FE0
FC07E0
FC07E0
FC07E0
FC07E0
FE07E0
FF07E0
7FF7E0
7FF7E0
3FF7E0
1FF7E0
0FF7E0
03F7E0
000000
000000
000000
01F800
03F800
03FC00
03FC00
03FC00
01F800
00F000
ENDCHAR
STARTCHAR 1EAE
ENCODING 7854
SWIDTH 617 0
DWIDTH 24 0
BBX 21 44 2 0
BITMAP
001F00
003E00
003C00
007800
007000
00F000
00E000
01C000
000000
0E0300
060700
078E00
07FE00
03FC00
006000
000000
00F000
07FE00
0FFF80
1FFFC0
3FFFC0
7FFFE0
7FFFF0
FF0FF0
FE07F0
FE03F0
FE03F0
FE03F8
FEFFF8
FEFFF8
FEFFF8
FEFFF8
FEFFF8
FEFFF8
FE03F8
FE03F8
FE03F8
FE03F8
FE03F8
FE03F8
FE03F8
FE03F8
FE03F8
FE03F8
ENDCHAR
STARTCHAR 1EAF
ENCODING 7855
SWIDTH 540 0
DWIDTH 21 0
BBX 19 36 1 0
BITMAP
003E00
003C00
007800
007000
00F000
00E000
01C000
000000
0C0700
0E0700
070E00
07FE00
03FC00
01F800
000000
000000
00E000
07FC00
1FFF00
3FFF80
3FFFC0
7FFFC0
7FFFE0
FE0FE0
FC07E0
FC07E0
FC07E0
FC07E0
FE07E0
FF07E0
7FF7E0
7FF7E0
3FF7E0
1FF7E0
0FF7E0
03F7E0
ENDCHAR
STARTCHAR 1EB0
ENCODING 7856
SWIDTH 617 0
DWIDTH 24 0
BBX 21 44 2 0
BITMAP
078000
07C000
03E000
01E000
00F000
007000
003800
003800
000000
0E0300
060700
078E00
07FE00
03FC00
006000
000000
00F000
07FE00
0FFF80
1FFFC0
3FFFC0
7FFFE0
7FFFF0
FF0FF0
FE07F0
FE03F0
FE03F0
FE03F8
FEFFF8
FEFFF8
FEFFF8
FEFFF8
FEFFF8
FEFFF8
FE03F8
FE03F8
FE03F8
FE03F8
FE03F8
FE03F8
FE03F8
FE03F8
FE03F8
FE03F8
ENDCHAR
STARTCHAR 1EB1
ENCODING 7857
SWIDTH 540 0
DWIDTH 21 0
BBX 19 36 1 0
BITMAP
07C000
03C000
01E000
01E000
00F000
007000
003800
000000
0C0700
0E0700
070E00
07FE00
03FC00
01F800
000000
000000
00E000
07FC00
1FFF00
3FFF80
3FFFC0
7FFFC0
7FFFE0
FE0FE0
FC07E0
FC07E0
FC07E0
FC07E0
FE07E0
FF07E0
7FF7E0
7FF7E0
3FF7E0
1FF7E0
0FF7E0
03F7E0
ENDCHAR
STARTCHAR 1EB2
ENCODING 7858
SWIDTH 617 0
DWIDTH 24 0
BBX 21 44 2 0
BITMAP
006000
00F800
01FC00
038C00
000C00
003C00
007800
007000
006000
0E0300
060700
078E00
07FE00
03FC00
006000
000000
00F000
07FE00
0FFF80
1FFFC0
3FFFC0
7FFFE0
7FFFF0
FF0FF0
FE07F0
FE03F0
FE03F0
FE03F8
FEFFF8
FEFFF8
FEFFF8
FEFFF8
FEFFF8
FEFFF8
FE03F8
FE03F8
FE03F8
FE03F8
FE03F8
FE03F8
FE03F8
FE03F8
FE03F8
FE03F8
ENDCHAR
STARTCHAR 1EB3
ENCODING 7859
SWIDTH 540 0
DWIDTH 21 0
BBX 19 36 1 0
BITMAP
00F000
01F800
039C00
011C00
001C00
007800
007000
006000
0C0700
0E0700
070E00
07FE00
03FC00
01F800
000000
000000
00E000
07FC00
1FFF00
3FFF80
3FFFC0
7FFFC0
7FFFE0
FE0FE0
FC07E0
FC07E0
FC07E0
FC07E0
FE07E0
FF07E0
7FF7E0
7FF7E0
3FF7E0
1FF7E0
0FF7E0
03F7E0
ENDCHAR
STARTCHAR 1EB4
ENCODING 7860
SWIDTH 617 0
DWIDTH 24 0
BBX 21 42 2 0
BITMAP
000300
03FF00
07FF00
07FE00
060000
000000
000000
0E0300
060700
078E00
07FE00
03FC00
006000
000000
00F000
07FE00
0FFF80
1FFFC0
3FFFC0
7FFFE0
7FFFF0
FF0FF0
FE07F0
FE03F0
FE03F0
FE03F8
FEFFF8
FEFFF8
FEFFF8
FEFFF8
FEFFF8
FEFFF8
FE03F8
FE03F8
FE03F8
FE03F8
FE03F8
FE03F8
FE03F8
FE03F8
FE03F8
FE03F8
ENDCHAR
STARTCHAR 1EB5
ENCODING 7861
SWIDTH 540 0
DWIDTH 21 0
BBX 19 35 1 0
BITMAP
000300
03E700
07FE00
07FE00
0E1C00
000000
000000
0C0700
0E0700
070E00
07FE00
03FC00
01F800
000000
000000
00E000
07FC00
1FFF00
3FFF80
3FFFC0
7FFFC0
7FFFE0
FE0FE0
FC07E0
FC07E0
FC07E0
FC07E0
FE07E0
FF07E0
7FF7E0
7FF7E0
3FF7E0
1FF7E0
0FF7E0
03F7E0
ENDCHAR
STARTCHAR 1EB6
ENCODING 7862
SWIDTH 617 0
DWIDTH 24 0
BBX 21 45 2 -10
BITMAP
0E0300
060700
078E00
07FE00
03FC00
006000
000000
00F000
07FE00
0FFF80
1FFFC0
3FFFC0
7FFFE0
7FFFF0
FF0FF0
FE07F0
FE03F0
FE03F0
FE03F8
FEFFF8
FEFFF8
FEFFF8
FEFFF8
FEFFF8
FEFFF8
FE03F8
FE03F8
FE03F8
FE03F8
FE03F8
FE03F8
FE03F8
FE03F8
FE03F8
FE03F8
000000
000000
000000
01F800
01FC00
03FC00
03FC00
03FC00
01F800
00F000
ENDCHAR
STARTCHAR 1EB7
ENCODING 7863
SWIDTH 540 0
DWIDTH 21 0
BBX 19 38 1 -10
BITMAP
0C0700
0E0700
070E00
07FE00
03FC00
01F800
000000
000000
00E000
07FC00
1FFF00
3FFF80
3FFFC0
7FFFC0
7FFFE0
FE0FE0
FC07E0
FC07E0
FC07E0
FC07E0
FE07E0
FF07E0
7FF7E0
7FF7E0
3FF7E0
1FF7E0
0FF7E0
03F7E0
000000
000000
000000
01F800
03F800
03FC00
03FC00
03FC00
01F800
00F000
ENDCHAR
STARTCHAR 1EB8
ENCODING 7864
SWIDTH 514 0
DWIDTH 20 0
BBX 18 37 1 -10
BITMAP
003FC0
01FFC0
03FFC0
0FFFC0
1FFFC0
1FFFC0
3FF000
7FC000
7F8000
7F0000
FFFFC0
FFFFC0
FFFFC0
FFFFC0
FFFFC0
FFFFC0
FF0000
7F0000
7F8000
7FC000
3FF800
1FFFC0
0FFFC0
07FFC0
03FFC0
00FFC0
001FC0
000000
000000
000000
007C00
00FE00
00FF00
00FF00
00FF00
007E00
007C00
ENDCHAR
STARTCHAR 1EB9
ENCODING 7865
SWIDTH 540 0
DWIDTH 21 0
BBX 20 30 1 -10
BITMAP
004000
07FC00
0FFF00
1FFF80
3FFFC0
7F0FC0
7E1FE0
FC3F80
FCFF00
FDFC00
FCF800
FC6180
FC43E0
FE07F0
7FFFE0
7FFFE0
3FFFC0
1FFF80
0FFF00
03FC00
000000
000000
000000
01F000
03F800
03F800
03FC00
03F800
03F800
01F000
ENDCHAR
STARTCHAR 1EBA
ENCODING 7866
SWIDTH 514 0
DWIDTH 20 0
BBX 18 37 1 0
BITMAP
001F00
001F80
0039C0
0011C0
0001C0
000780
000700
000600
000000
000000
003FC0
01FFC0
03FFC0
0FFFC0
1FFFC0
1FFFC0
3FF000
7FC000
7F8000
7F0000
FFFFC0
FFFFC0
FFFFC0
FFFFC0
FFFFC0
FFFFC0
FF0000
7F0000
7F8000
7FC000
3FF800
1FFFC0
0FFFC0
07FFC0
03FFC0
00FFC0
001FC0
ENDCHAR
STARTCHAR 1EBB
ENCODING 7867
SWIDTH 540 0
DWIDTH 21 0
BBX 20 30 1 0
BITMAP
00F000
01F800
03FC00
039C00
001C00
007C00
007800
006000
006000
000000
004000
07FC00
0FFF00
1FFF80
3FFFC0
7F0FC0
7E1FE0
FC3F80
FCFF00
FDFC00
FCF800
FC6180
FC43E0
FE07F0
7FFFE0
7FFFE0
3FFFC0
1FFF80
0FFF00
03FC00
ENDCHAR
STARTCHAR 1EBC
ENCODING 7868
SWIDTH 514 0
DWIDTH 20 0
BBX 18 36 1 0
BITMAP
0000C0
00F9C0
01FF80
03FF80
038600
000000
000000
000000
000000
003FC0
01FFC0
03FFC0
0FFFC0
1FFFC0
1FFFC0
3FF000
7FC000
7F8000
7F0000
FFFFC0
FFFFC0
FFFFC0
FFFFC0
FFFFC0
FFFFC0
FF0000
7F0000
7F8000
7FC000
3FF800
1FFFC0
0FFFC0
07FFC0
03FFC0
00FFC0
001FC0
ENDCHAR
STARTCHAR 1EBD
ENCODING 7869
SWIDTH 540 0
DWIDTH 21 0
BBX 20 28 1 0
BITMAP
000700
038600
07FE00
0FFC00
0C7800
0C0000
000000
000000
004000
07FC00
0FFF00
1FFF80
3FFFC0
7F0FC0
7E1FE0
FC3F80
FCFF00
FDFC00
FCF800
FC6180
FC43E0
FE07F0
7FFFE0
7FFFE0
3FFFC0
1FFF80
0FFF00
03FC00
ENDCHAR
STARTCHAR 1EBE
ENCODING 7870
SWIDTH 514 0
DWIDTH 20 0
BBX 18 44 1 0
BITMAP
001E00
003E00
007C00
007800
00F000
00E000
01C000
000000
007C00
007E00
00FE00
00EF00
01E700
01C380
038380
000000
000000
003FC0
01FFC0
03FFC0
0FFFC0
1FFFC0
1FFFC0
3FF000
7FC000
7F8000
7F0000
FFFFC0
FFFFC0
FFFFC0
FFFFC0
FFFFC0
FFFFC0
FF0000
7F0000
7F8000
7FC000
3FF800
1FFFC0
0FFFC0
07FFC0
03FFC0
00FFC0
001FC0
ENDCHAR
STARTCHAR 1EBF
ENCODING 7871
SWIDTH 540 0
DWIDTH 21 0
BBX 20 36 1 0
BITMAP
00F800
00F000
01E000
01C000
03C000
038000
070000
000000
01F800
03F800
03FC00
079C00
071E00
0E0E00
0E0700
000000
004000
07FC00
0FFF00
1FFF80
3FFFC0
7F0FC0
7E1FE0
FC3F80
FCFF00
FDFC00
FCF800
FC6180
FC43E0
FE07F0
7FFFE0
7FFFE0
3FFFC0
1FFF80
0FFF00
03FC00
ENDCHAR
STARTCHAR 1EC0
ENCODING 7872
SWIDTH 514 0
DWIDTH 20 0
BBX 18 44 1 0
BITMAP
00F800
007C00
003C00
001E00
001E00
000F00
000700
000000
007C00
007E00
00FE00
00EF00
01E700
01C380
038380
000000
000000
003FC0
01FFC0
03FFC0
0FFFC0
1FFFC0
1FFFC0
3FF000
7FC000
7F8000
7F0000
FFFFC0
FFFFC0
FFFFC0
FFFFC0
FFFFC0
FFFFC0
FF0000
7F0000
7F8000
7FC000
3FF800
1FFFC0
0FFFC0
07FFC0
03FFC0
00FFC0
001FC0
ENDCHAR
STARTCHAR 1EC1
ENCODING 7873
SWIDTH 540 0
DWIDTH 21 0
BBX 20 36 1 0
BITMAP
01E000
00F000
00F000
007800
003800
001C00
000E00
000000
01F800
03F800
03FC00
079C00
071E00
0E0E00
0E0700
000000
004000
07FC00
0FFF00
1FFF80
3FFFC0
7F0FC0
7E1FE0
FC3F80
FCFF00
FDFC00
FCF800
FC6180
FC43E0
FE07F0
7FFFE0
7FFFE0
3FFFC0
1FFF80
0FFF00
03FC00
ENDCHAR
STARTCHAR 1EC2
ENCODING 7874
SWIDTH 514 0
DWIDTH 20 0
BBX 21 44 1 0
BITMAP
0000C0
0003F0
0007F0
000738
000038
0000F8
0000F0
0000C0
007CC0
007E00
00FE00
00EF00
01E700
01C380
038380
000000
000000
003FC0
01FFC0
03FFC0
0FFFC0
1FFFC0
1FFFC0
3FF000
7FC000
7F8000
7F0000
FFFFC0
FFFFC0
FFFFC0
FFFFC0
FFFFC0
FFFFC0
FF0000
7F0000
7F8000
7FC000
3FF800
1FFFC0
0FFFC0
07FFC0
03FFC0
00FFC0
001FC0
ENDCHAR
STARTCHAR 1EC3
ENCODING 7875
SWIDTH 540 0
DWIDTH 21 0
BBX 20 36 1 0
BITMAP
000780
000FC0
001CE0
0008E0
0000E0
0003C0
000380
000300
01F800
03F800
03FC00
079C00
071E00
0E0E00
0E0700
000000
004000
07FC00
0FFF00
1FFF80
3FFFC0
7F0FC0
7E1FE0
FC3F80
FCFF00
FDFC00
FCF800
FC6180
FC43E0
FE07F0
7FFFE0
7FFFE0
3FFFC0
1FFF80
0FFF00
03FC00
ENDCHAR
STARTCHAR 1EC4
ENCODING 7876
SWIDTH 514 0
DWIDTH 20 0
BBX 19 42 1 0
BITMAP
000060
00FFC0
00FFC0
01FF80
018000
000000
007C00
007E00
00FE00
00EF00
01E700
01C380
038380
000000
000000
003FC0
01FFC0
03FFC0
0FFFC0
1FFFC0
1FFFC0
3FF000
7FC000
7F8000
7F0000
FFFFC0
FFFFC0
FFFFC0
FFFFC0
FFFFC0
FFFFC0
FF0000
7F0000
7F8000
7FC000
3FF800
1FFFC0
0FFFC0
07FFC0
03FFC0
00FFC0
001FC0
ENDCHAR
STARTCHAR 1EC5
ENCODING 7877
SWIDTH 540 0
DWIDTH 21 0
BBX 20 35 1 0
BITMAP
000180
01F380
03FF00
07FF00
060C00
000000
000000
01F800
03F800
03FC00
079C00
071E00
0E0E00
0E0700
000000
004000
07FC00
0FFF00
1FFF80
3FFFC0
7F0FC0
7E1FE0
FC3F80
FCFF00
FDFC00
FCF800
FC6180
FC43E0
FE07F0
7FFFE0
7FFFE0
3FFFC0
1FFF80
0FFF00
03FC00
ENDCHAR
STARTCHAR 1EC6
ENCODING 7878
SWIDTH 514 0
DWIDTH 20 0
BBX 18 46 1 -10
BITMAP
007C00
007E00
00FE00
00EF00
01E700
01C380
038380
000000
000000
003FC0
01FFC0
03FFC0
0FFFC0
1FFFC0
1FFFC0
3FF000
7FC000
7F8000
7F0000
FFFFC0
FFFFC0
FFFFC0
FFFFC0
FFFFC0
FFFFC0
FF0000
7F0000
7F8000
7FC000
3FF800
1FFFC0
0FFFC0
07FFC0
03FFC0
00FFC0
001FC0
000000
000000
000000
007C00
00FE00
00FF00
00FF00
00FF00
007E00
007C00
ENDCHAR
STARTCHAR 1EC7
ENCODING 7879
SWIDTH 540 0
DWIDTH 21 0
BBX 20 38 1 -10
BITMAP
01F800
03F800
03FC00
079C00
071E00
0E0E00
0E0700
000000
004000
07FC00
0FFF00
1FFF80
3FFFC0
7F0FC0
7E1FE0
FC3F80
FCFF00
FDFC00
FCF800
FC6180
FC43E0
FE07F0
7FFFE0
7FFFE0
3FFFC0
1FFF80
0FFF00
03FC00
000000
000000
000000
01F000
03F800
03F800
03FC00
03F800
03F800
01F000
ENDCHAR
STARTCHAR 1EC8
ENCODING 7880
SWIDTH 257 0
DWIDTH 10 0
BBX 8 37 2 0
BITMAP
7C
FE
C6
47
0E
3E
3C
30
00
00
FE
FE
FE
FE
FE
FE
FE
FE
FE
FE
FE
FE
FE
FE
FE
FE
FE
FE
FE
FE
FE
FE
FE
FE
FE
FE
FE
ENDCHAR
STARTCHAR 1EC9
ENCODING 7881
SWIDTH 231 0
DWIDTH 9 0
BBX 8 30 1 0
BITMAP
1C
7E
7F
E7
07
1F
1E
18
18
00
00
7E
7E
7E
7E
7E
7E
7E
7E
7E
7E
7E
7E
7E
7E
7E
7E
7E
7E
7E
ENDCHAR
STARTCHAR 1ECA
ENCODING 7882
SWIDTH 257 0
DWIDTH 10 0
BBX 7 37 2 -10
BITMAP
FE
FE
FE
FE
FE
FE
FE
FE
FE
FE
FE
FE
FE
FE
FE
FE
FE
FE
FE
FE
FE
FE
FE
FE
FE
FE
FE
00
00
00
7C
FE
FE
FE
FE
FE
7C
ENDCHAR
STARTCHAR 1ECB
ENCODING 7883
SWIDTH 231 0
DWIDTH 9 0
BBX 8 38 1 -10
BITMAP
3C
7E
FE
FE
FE
7E
3C
00
00
7E
7E
7E
7E
7E
7E
7E
7E
7E
7E
7E
7E
7E
7E
7E
7E
7E
7E
7E
00
00
00
7E
FE
FF
FF
FF
7E
3C
ENDCHAR
STARTCHAR 1ECC
ENCODING 7884
SWIDTH 771 0
DWIDTH 30 0
BBX 28 38 1 -10
BITMAP
000F0000
00FFF000
01FFFC00
07FFFE00
0FFFFF00
1FFFFF80
3FFFFFC0
3FF07FC0
7FC03FE0
7F801FE0
7F000FE0
FF0007F0
FE0007F0
FE0007F0
FE0007F0
FE0007F0
FE0007F0
FF000FF0
7F000FE0
7F801FE0
7FC03FE0
3FF0FFC0
1FFFFF80
1FFFFF80
0FFFFF00
07FFFE00
01FFF800
007FE000
00000000
00000000
00000000
001F8000
001F8000
003FC000
003FC000
003FC000
001F8000
000F0000
ENDCHAR
STARTCHAR 1ECD
ENCODING 7885
SWIDTH 540 0
DWIDTH 21 0
BBX 19 30 1 -10
BITMAP
00E000
07FC00
0FFF00
1FFF80
3FFFC0
7FFFC0
7FBFE0
FE0FE0
FE07E0
FC07E0
FC07E0
FC07E0
FE07E0
FF0FE0
7FFFE0
7FFFC0
3FFF80
1FFF80
0FFE00
03FC00
000000
000000
000000
01F000
03F800
03F800
03FC00
03F800
03F800
01F000
ENDCHAR
STARTCHAR 1ECE
ENCODING 7886
SWIDTH 771 0
DWIDTH 30 0
BBX 28 37 1 0
BITMAP
000F8000
001FC000
0019C000
0008C000
0001C000
00078000
00070000
00060000
00000000
000F0000
00FFF000
01FFFC00
07FFFE00
0FFFFF00
1FFFFF80
3FFFFFC0
3FF07FC0
7FC03FE0
7F801FE0
7F000FE0
FF0007F0
FE0007F0
FE0007F0
FE0007F0
FE0007F0
FE0007F0
FF000FF0
7F000FE0
7F801FE0
7FC03FE0
3FF0FFC0
1FFFFF80
1FFFFF80
0FFFFF00
07FFFE00
01FFF800
007FE000
ENDCHAR
STARTCHAR 1ECF
ENCODING 7887
SWIDTH 540 0
DWIDTH 21 0
BBX 19 30 1 0
BITMAP
00F000
01F800
03FC00
039C00
001C00
007C00
007800
006000
006000
000000
00E000
07FC00
0FFF00
1FFF80
3FFFC0
7FFFC0
7FBFE0
FE0FE0
FE07E0
FC07E0
FC07E0
FC07E0
FE07E0
FF0FE0
7FFFE0
7FFFC0
3FFF80
1FFF80
0FFE00
03FC00
ENDCHAR
STARTCHAR 1ED0
ENCODING 7888
SWIDTH 771 0
DWIDTH 30 0
BBX 28 44 1 0
BITMAP
0007C000
000F8000
000F0000
001E0000
001C0000
00380000
00380000
00000000
000F0000
001F8000
001F8000
003FC000
0079E000
0070E000
00E07000
00000000
000F0000
00FFF000
01FFFC00
07FFFE00
0FFFFF00
1FFFFF80
3FFFFFC0
3FF07FC0
7FC03FE0
7F801FE0
7F000FE0
FF0007F0
FE0007F0
FE0007F0
FE0007F0
FE0007F0
FE0007F0
FF000FF0
7F000FE0
7F801FE0
7FC03FE0
3FF0FFC0
1FFFFF80
1FFFFF80
0FFFFF00
07FFFE00
01FFF800
007FE000
ENDCHAR
STARTCHAR 1ED1
ENCODING 7889
SWIDTH 540 0
DWIDTH 21 0
BBX 19 36 1 0
BITMAP
00F800
00F000
01E000
01C000
038000
078000
070000
000000
01F000
03F800
03FC00
079C00
071E00
0E0E00
0C0700
000000
00E000
07FC00
0FFF00
1FFF80
3FFFC0
7FFFC0
7FBFE0
FE0FE0
FE07E0
FC07E0
FC07E0
FC07E0
FE07E0
FF0FE0
7FFFE0
7FFFC0
3FFF80
1FFF80
0FFE00
03FC00
ENDCHAR
STARTCHAR 1ED2
ENCODING 7890
SWIDTH 771 0
DWIDTH 30 0
BBX 28 44 1 0
BITMAP
003E0000
001F0000
000F0000
00078000
00038000
0001C000
0001C000
00000000
000F0000
001F8000
001F8000
003FC000
0079E000
0070E000
00E07000
00000000
000F0000
00FFF000
01FFFC00
07FFFE00
0FFFFF00
1FFFFF80
3FFFFFC0
3FF07FC0
7FC03FE0
7F801FE0
7F000FE0
FF0007F0
FE0007F0
FE0007F0
FE0007F0
FE0007F0
FE0007F0
FF000FF0
7F000FE0
7F801FE0
7FC03FE0
3FF0FFC0
1FFFFF80
1FFFFF80
0FFFFF00
07FFFE00
01FFF800
007FE000
ENDCHAR
STARTCHAR 1ED3
ENCODING 7891
SWIDTH 540 0
DWIDTH 21 0
BBX 19 36 1 0
BITMAP
01E000
01F000
00F000
007800
003800
001C00
000E00
000000
01F000
03F800
03FC00
079C00
071E00
0E0E00
0C0700
000000
00E000
07FC00
0FFF00
1FFF80
3FFFC0
7FFFC0
7FBFE0
FE0FE0
FE07E0
FC07E0
FC07E0
FC07E0
FE07E0
FF0FE0
7FFFE0
7FFFC0
3FFF80
1FFF80
0FFE00
03FC00
ENDCHAR
STARTCHAR 1ED4
ENCODING 7892
SWIDTH 771 0
DWIDTH 30 0
BBX 28 44 1 0
BITMAP
00003000
0000FC00
0000FE00
0001C600
00000600
00003E00
00003C00
00003000
000F3000
001F8000
001F8000
003FC000
0079E000
0070E000
00E07000
00000000
000F0000
00FFF000
01FFFC00
07FFFE00
0FFFFF00
1FFFFF80
3FFFFFC0
3FF07FC0
7FC03FE0
7F801FE0
7F000FE0
FF0007F0
FE0007F0
FE0007F0
FE0007F0
FE0007F0
FE0007F0
FF000FF0
7F000FE0
7F801FE0
7FC03FE0
3FF0FFC0
1FFFFF80
1FFFFF80
0FFFFF00
07FFFE00
01FFF800
007FE000
ENDCHAR
STARTCHAR 1ED5
ENCODING 7893
SWIDTH 540 0
DWIDTH 21 0
BBX 19 36 1 0
BITMAP
000780
000FC0
001CE0
0008E0
0000E0
0003C0
000380
000300
01F000
03F800
03FC00
079C00
071E00
0E0E00
0C0700
000000
00E000
07FC00
0FFF00
1FFF80
3FFFC0
7FFFC0
7FBFE0
FE0FE0
FE07E0
FC07E0
FC07E0
FC07E0
FE07E0
FF0FE0
7FFFE0
7FFFC0
3FFF80
1FFF80
0FFE00
03FC00
ENDCHAR
STARTCHAR 1ED6
ENCODING 7894
SWIDTH 771 0
DWIDTH 30 0
BBX 28 42 1 0
BITMAP
00001800
001FF800
003FF000
003FE000
00600000
00000000
000F0000
001F8000
001F8000
003FC000
0079E000
0070E000
00E07000
00000000
000F0000
00FFF000
01FFFC00
07FFFE00
0FFFFF00
1FFFFF80
3FFFFFC0
3FF07FC0
7FC03FE0
7F801FE0
7F000FE0
FF0007F0
FE0007F0
FE0007F0
FE0007F0
FE0007F0
FE0007F0
FF000FF0
7F000FE0
7F801FE0
7FC03FE0
3FF0FFC0
1FFFFF80
1FFFFF80
0FFFFF00
07FFFE00
01FFF800
007FE000
ENDCHAR
STARTCHAR 1ED7
ENCODING 7895
SWIDTH 540 0
DWIDTH 21 0
BBX 19 35 1 0
BITMAP
000180
01F380
03FF00
07FF00
061C00
000000
000000
01F000
03F800
03FC00
079C00
071E00
0E0E00
0C0700
000000
00E000
07FC00
0FFF00
1FFF80
3FFFC0
7FFFC0
7FBFE0
FE0FE0
FE07E0
FC07E0
FC07E0
FC07E0
FE07E0
FF0FE0
7FFFE0
7FFFC0
3FFF80
1FFF80
0FFE00
03FC00
ENDCHAR
STARTCHAR 1ED8
ENCODING 7896
SWIDTH 771 0
DWIDTH 30 0
BBX 28 46 1 -10
BITMAP
000F0000
001F8000
001F8000
003FC000
0079E000
0070E000
00E07000
00000000
000F0000
00FFF000
01FFFC00
07FFFE00
0FFFFF00
1FFFFF80
3FFFFFC0
3FF07FC0
7FC03FE0
7F801FE0
7F000FE0
FF0007F0
FE0007F0
FE0007F0
FE0007F0
FE0007F0
FE0007F0
FF000FF0
7F000FE0
7F801FE0
7FC03FE0
3FF0FFC0
1FFFFF80
1FFFFF80
0FFFFF00
07FFFE00
01FFF800
007FE000
00000000
00000000
00000000
001F8000
001F8000
003FC000
003FC000
003FC000
001F8000
000F0000
ENDCHAR
STARTCHAR 1ED9
ENCODING 7897
SWIDTH 540 0
DWIDTH 21 0
BBX 19 38 1 -10
BITMAP
01F000
03F800
03FC00
079C00
071E00
0E0E00
0C0700
000000
00E000
07FC00
0FFF00
1FFF80
3FFFC0
7FFFC0
7FBFE0
FE0FE0
FE07E0
FC07E0
FC07E0
FC07E0
FE07E0
FF0FE0
7FFFE0
7FFFC0
3FFF80
1FFF80
0FFE00
03FC00
000000
000000
000000
01F000
03F800
03F800
03FC00
03F800
03F800
01F000
ENDCHAR
STARTCHAR 1EDA
ENCODING 7898
SWIDTH 771 0
DWIDTH 30 0
BBX 28 37 1 0
BITMAP
0001E000
0003E000
0003C000
00078000
000F0000
000E0000
001C0000
00000000
000001F0
000F01F0
00FFF3E0
01FFFFE0
07FFFFC0
0FFFFFC0
1FFFFF80
3FFFFFC0
3FF07FC0
7FC03FE0
7F801FE0
7F000FE0
FF0007F0
FE0007F0
FE0007F0
FE0007F0
FE0007F0
FE0007F0
FF000FF0
7F000FE0
7F801FE0
7FC03FE0
3FF0FFC0
1FFFFF80
1FFFFF80
0FFFFF00
07FFFE00
01FFF800
007FE000
ENDCHAR
STARTCHAR 1EDB
ENCODING 7899
SWIDTH 540 0
DWIDTH 21 0
BBX 21 28 1 0
BITMAP
003E00
007C00
007800
00F000
00E000
01C000
0180F8
0000F8
00E1F0
07FDF0
0FFFE0
1FFFE0
3FFFC0
7FFFC0
7FBFE0
FE0FE0
FE07E0
FC07E0
FC07E0
FC07E0
FE07E0
FF0FE0
7FFFE0
7FFFC0
3FFF80
1FFF80
0FFE00
03FC00
ENDCHAR
STARTCHAR 1EDC
ENCODING 7900
SWIDTH 771 0
DWIDTH 30 0
BBX 28 37 1 0
BITMAP
007C0000
003C0000
003E0000
001E0000
000F0000
00070000
00038000
00000000
000001F0
000F01F0
00FFF3E0
01FFFFE0
07FFFFC0
0FFFFFC0
1FFFFF80
3FFFFFC0
3FF07FC0
7FC03FE0
7F801FE0
7F000FE0
FF0007F0
FE0007F0
FE0007F0
FE0007F0
FE0007F0
FE0007F0
FF000FF0
7F000FE0
7F801FE0
7FC03FE0
3FF0FFC0
1FFFFF80
1FFFFF80
0FFFFF00
07FFFE00
01FFF800
007FE000
ENDCHAR
STARTCHAR 1EDD
ENCODING 7901
SWIDTH 540 0
DWIDTH 21 0
BBX 21 28 1 0
BITMAP
07C000
03C000
01E000
01E000
00F000
007000
0038F8
0000F8
00E1F0
07FDF0
0FFFE0
1FFFE0
3FFFC0
7FFFC0
7FBFE0
FE0FE0
FE07E0
FC07E0
FC07E0
FC07E0
FE07E0
FF0FE0
7FFFE0
7FFFC0
3FFF80
1FFF80
0FFE00
03FC00
ENDCHAR
STARTCHAR 1EDE
ENCODING 7902
SWIDTH 771 0
DWIDTH 30 0
BBX 28 37 1 0
BITMAP
000F8000
001FC000
0019C000
0008C000
0001C000
00078000
00070000
00060000
000001F0
000F01F0
00FFF3E0
01FFFFE0
07FFFFC0
0FFFFFC0
1FFFFF80
3FFFFFC0
3FF07FC0
7FC03FE0
7F801FE0
7F000FE0
FF0007F0
FE0007F0
FE0007F0
FE0007F0
FE0007F0
FE0007F0
FF000FF0
7F000FE0
7F801FE0
7FC03FE0
3FF0FFC0
1FFFFF80
1FFFFF80
0FFFFF00
07FFFE00
01FFF800
007FE000
ENDCHAR
STARTCHAR 1EDF
ENCODING 7903
SWIDTH 540 0
DWIDTH 21 0
BBX 21 30 1 0
BITMAP
00F000
01F800
03FC00
039C00
001C00
007C00
007800
006000
0060F8
0000F8
00E1F0
07FDF0
0FFFE0
1FFFE0
3FFFC0
7FFFC0
7FBFE0
FE0FE0
FE07E0
FC07E0
FC07E0
FC07E0
FE07E0
FF0FE0
7FFFE0
7FFFC0
3FFF80
1FFF80
0FFE00
03FC00
ENDCHAR
STARTCHAR 1EE0
ENCODING 7904
SWIDTH 771 0
DWIDTH 30 0
BBX 28 36 1 0
BITMAP
00003000
003E7000
007FE000
007FE000
00E1C000
00000000
00000000
000001F0
000F01F0
00FFF3E0
01FFFFE0
07FFFFC0
0FFFFFC0
1FFFFF80
3FFFFFC0
3FF07FC0
7FC03FE0
7F801FE0
7F000FE0
FF0007F0
FE0007F0
FE0007F0
FE0007F0
FE0007F0
FE0007F0
FF000FF0
7F000FE0
7F801FE0
7FC03FE0
3FF0FFC0
1FFFFF80
1FFFFF80
0FFFFF00
07FFFE00
01FFF800
007FE000
ENDCHAR
STARTCHAR 1EE1
ENCODING 7905
SWIDTH 540 0
DWIDTH 21 0
BBX 21 28 1 0
BITMAP
000300
038600
07FE00
0FFE00
0E7C00
0C0000
0000F8
0000F8
00E1F0
07FDF0
0FFFE0
1FFFE0
3FFFC0
7FFFC0
7FBFE0
FE0FE0
FE07E0
FC07E0
FC07E0
FC07E0
FE07E0
FF0FE0
7FFFE0
7FFFC0
3FFF80
1FFF80
0FFE00
03FC00
ENDCHAR
STARTCHAR 1EE2
ENCODING 7906
SWIDTH 771 0
DWIDTH 30 0
BBX 28 39 1 -10
BITMAP
000001F0
000F01F0
00FFF3E0
01FFFFE0
07FFFFC0
0FFFFFC0
1FFFFF80
3FFFFFC0
3FF07FC0
7FC03FE0
7F801FE0
7F000FE0
FF0007F0
FE0007F0
FE0007F0
FE0007F0
FE0007F0
FE0007F0
FF000FF0
7F000FE0
7F801FE0
7FC03FE0
3FF0FFC0
1FFFFF80
1FFFFF80
0FFFFF00
07FFFE00
01FFF800
007FE000
00000000
00000000
00000000
001F8000
001F8000
003FC000
003FC000
003FC000
001F8000
000F0000
ENDCHAR
STARTCHAR 1EE3
ENCODING 7907
SWIDTH 540 0
DWIDTH 21 0
BBX 21 32 1 -10
BITMAP
0000F8
0000F8
00E1F0
07FDF0
0FFFE0
1FFFE0
3FFFC0
7FFFC0
7FBFE0
FE0FE0
FE07E0
FC07E0
FC07E0
FC07E0
FE07E0
FF0FE0
7FFFE0
7FFFC0
3FFF80
1FFF80
0FFE00
03FC00
000000
000000
000000
01F000
03F800
03F800
03FC00
03F800
03F800
01F000
ENDCHAR
STARTCHAR 1EE4
ENCODING 7908
SWIDTH 617 0
DWIDTH 24 0
BBX 20 37 2 -10
BITMAP
FE03F0
FE03F0
FE03F0
FE03F0
FE03F0
FE03F0
FE03F0
FE03F0
FE03F0
FE03F0
FE03F0
FE03F0
FE03F0
FE03F0
FE03F0
FE03F0
FE03F0
FE03F0
FE07F0
FE07F0
FF8FF0
7FFFE0
7FFFE0
3FFFC0
1FFF80
0FFF00
07FE00
000000
000000
000000
01F800
01FC00
03FC00
03FC00
03FC00
01F800
00F000
ENDCHAR
STARTCHAR 1EE5
ENCODING 7909
SWIDTH 514 0
DWIDTH 20 0
BBX 17 29 2 -10
BITMAP
FC1F80
FC1F80
FC1F80
FC1F80
FC1F80
FC1F80
FC1F80
FC1F80
FC1F80
FC1F80
FC1F80
FC1F80
FC1F80
FFFF80
FFFF00
7FFF00
3FFE00
1FFC00
0FF000
000000
000000
008000
03E000
07F000
07F000
07F000
07F000
07F000
03E000
ENDCHAR
STARTCHAR 1EE6
ENCODING 7910
SWIDTH 617 0
DWIDTH 24 0
BBX 20 37 2 0
BITMAP
00F800
01FC00
019C00
008C00
001C00
007C00
007000
006000
000000
000000
FE03F0
FE03F0
FE03F0
FE03F0
FE03F0
FE03F0
FE03F0
FE03F0
FE03F0
FE03F0
FE03F0
FE03F0
FE03F0
FE03F0
FE03F0
FE03F0
FE03F0
FE03F0
FE07F0
FE07F0
FF8FF0
7FFFE0
7FFFE0
3FFFC0
1FFF80
0FFF00
07FE00
ENDCHAR
STARTCHAR 1EE7
ENCODING 7911
SWIDTH 514 0
DWIDTH 20 0
BBX 17 30 2 0
BITMAP
01C000
03E000
07F000
063000
003000
01F000
01E000
018000
018000
000000
000000
FC1F80
FC1F80
FC1F80
FC1F80
FC1F80
FC1F80
FC1F80
FC1F80
FC1F80
FC1F80
FC1F80
FC1F80
FC1F80
FFFF80
FFFF00
7FFF00
3FFE00
1FFC00
0FF000
ENDCHAR
STARTCHAR 1EE8
ENCODING 7912
SWIDTH 668 0
DWIDTH 26 0
BBX 25 37 2 0
BITMAP
001F0000
003E0000
003C0000
00780000
00700000
00E00000
00C00000
00000000
00000F80
00000F80
FE03FF00
FE03FF00
FE03FE00
FE03FE00
FE03FC00
FE03FC00
FE03F000
FE03F000
FE03F000
FE03F000
FE03F000
FE03F000
FE03F000
FE03F000
FE03F000
FE03F000
FE03F000
FE03F000
FE07F000
FE07F000
FF8FF000
7FFFE000
7FFFE000
3FFFC000
1FFF8000
0FFF0000
07FE0000
ENDCHAR
STARTCHAR 1EE9
ENCODING 7913
SWIDTH 565 0
DWIDTH 22 0
BBX 22 28 2 0
BITMAP
007800
00F000
00F000
01E000
03C000
038000
07007C
0000F8
0000F8
FC1FF0
FC1FF0
FC1FE0
FC1FE0
FC1FC0
FC1F80
FC1F80
FC1F80
FC1F80
FC1F80
FC1F80
FC1F80
FC1F80
FFFF80
FFFF00
7FFF00
3FFE00
1FFC00
0FF000
ENDCHAR
STARTCHAR 1EEA
ENCODING 7914
SWIDTH 668 0
DWIDTH 26 0
BBX 25 37 2 0
BITMAP
07C00000
03C00000
03E00000
01E00000
00F00000
00700000
00380000
00000000
00000F80
00000F80
FE03FF00
FE03FF00
FE03FE00
FE03FE00
FE03FC00
FE03FC00
FE03F000
FE03F000
FE03F000
FE03F000
FE03F000
FE03F000
FE03F000
FE03F000
FE03F000
FE03F000
FE03F000
FE03F000
FE07F000
FE07F000
FF8FF000
7FFFE000
7FFFE000
3FFFC000
1FFF8000
0FFF0000
07FE0000
ENDCHAR
STARTCHAR 1EEB
ENCODING 7915
SWIDTH 565 0
DWIDTH 22 0
BBX 22 28 2 0
BITMAP
1F0000
0F8000
078000
03C000
01C000
00E000
00607C
0000F8
0000F8
FC1FF0
FC1FF0
FC1FE0
FC1FE0
FC1FC0
FC1F80
FC1F80
FC1F80
FC1F80
FC1F80
FC1F80
FC1F80
FC1F80
FFFF80
FFFF00
7FFF00
3FFE00
1FFC00
0FF000
ENDCHAR
STARTCHAR 1EEC
ENCODING 7916
SWIDTH 668 0
DWIDTH 26 0
BBX 25 37 2 0
BITMAP
00F80000
01FC0000
019C0000
008C0000
001C0000
007C0000
00700000
00600000
00000F80
00000F80
FE03FF00
FE03FF00
FE03FE00
FE03FE00
FE03FC00
FE03FC00
FE03F000
FE03F000
FE03F000
FE03F000
FE03F000
FE03F000
FE03F000
FE03F000
FE03F000
FE03F000
FE03F000
FE03F000
FE07F000
FE07F000
FF8FF000
7FFFE000
7FFFE000
3FFFC000
1FFF8000
0FFF0000
07FE0000
ENDCHAR
STARTCHAR 1EED
ENCODING 7917
SWIDTH 565 0
DWIDTH 22 0
BBX 22 30 2 0
BITMAP
01C000
03E000
07F000
063000
003000
01F000
01E000
018000
01807C
0000F8
0000F8
FC1FF0
FC1FF0
FC1FE0
FC1FE0
FC1FC0
FC1F80
FC1F80
FC1F80
FC1F80
FC1F80
FC1F80
FC1F80
FC1F80
FFFF80
FFFF00
7FFF00
3FFE00
1FFC00
0FF000
ENDCHAR
STARTCHAR 1EEE
ENCODING 7918
SWIDTH 668 0
DWIDTH 26 0
BBX 25 36 2 0
BITMAP
00030000
03E70000
07FE0000
07FE0000
0E180000
00000000
00000000
00000F80
00000F80
FE03FF00
FE03FF00
FE03FE00
FE03FE00
FE03FC00
FE03FC00
FE03F000
FE03F000
FE03F000
FE03F000
FE03F000
FE03F000
FE03F000
FE03F000
FE03F000
FE03F000
FE03F000
FE03F000
FE07F000
FE07F000
FF8FF000
7FFFE000
7FFFE000
3FFFC000
1FFF8000
0FFF0000
07FE0000
ENDCHAR
STARTCHAR 1EEF
ENCODING 7919
SWIDTH 565 0
DWIDTH 22 0
BBX 22 28 2 0
BITMAP
000E00
070C00
0FFC00
1FF800
18F000
180000
00007C
0000F8
0000F8
FC1FF0
FC1FF0
FC1FE0
FC1FE0
FC1FC0
FC1F80
FC1F80
FC1F80
FC1F80
FC1F80
FC1F80
FC1F80
FC1F80
FFFF80
FFFF00
7FFF00
3FFE00
1FFC00
0FF000
ENDCHAR
STARTCHAR 1EF0
ENCODING 7920
SWIDTH 668 0
DWIDTH 26 0
BBX 25 39 2 -10
BITMAP
00000F80
00000F80
FE03FF00
FE03FF00
FE03FE00
FE03FE00
FE03FC00
FE03FC00
FE03F000
FE03F000
FE03F000
FE03F000
FE03F000
FE03F000
FE03F000
FE03F000
FE03F000
FE03F000
FE03F000
FE03F000
FE07F000
FE07F000
FF8FF000
7FFFE000
7FFFE000
3FFFC000
1FFF8000
0FFF0000
07FE0000
00000000
00000000
00000000
01F80000
01FC0000
03FC0000
03FC0000
03FC0000
01F80000
00F00000
ENDCHAR
STARTCHAR 1EF1
ENCODING 7921
SWIDTH 565 0
DWIDTH 22 0
BBX 22 32 2 -10
BITMAP
00007C
0000F8
0000F8
FC1FF0
FC1FF0
FC1FE0
FC1FE0
FC1FC0
FC1F80
FC1F80
FC1F80
FC1F80
FC1F80
FC1F80
FC1F80
FC1F80
FFFF80
FFFF00
7FFF00
3FFE00
1FFC00
0FF000
000000
000000
008000
03E000
07F000
07F000
07F000
07F000
07F000
03E000
ENDCHAR
STARTCHAR 1EF2
ENCODING 7922
SWIDTH 565 0
DWIDTH 22 0
BBX 19 37 2 0
BITMAP
1F0000
0F8000
078000
03C000
01C000
00E000
006000
000000
000000
000000
FC0FE0
FC0FE0
FC0FE0
FC0FE0
FC0FE0
FC0FE0
FC0FE0
FC0FE0
FC0FE0
FC0FC0
FE1FC0
FF3FC0
FFFFC0
7FFF80
3FFF80
3FFF00
0FFC00
03F800
03F000
03F000
03F000
03F000
03F000
03F000
03F000
03F000
03F000
ENDCHAR
STARTCHAR 1EF3
ENCODING 7923
SWIDTH 514 0
DWIDTH 20 0
BBX 17 36 2 -8
BITMAP
1F0000
0F8000
078000
03C000
01C000
00E000
006000
000000
000000
FC1F80
FC1F80
FC1F80
FC1F80
FC1F80
FC1F80
FC1F80
FC1F80
FC1F80
FC1F80
FC1F80
FC1F80
FC1F80
FE7F80
FFFF00
7FFF00
3FFE00
1FFC00
0FF000
07E000
07E000
07E000
07E000
07E000
07E000
07E000
07E000
ENDCHAR
STARTCHAR 1EF4
ENCODING 7924
SWIDTH 565 0
DWIDTH 22 0
BBX 19 37 2 -10
BITMAP
FC0FE0
FC0FE0
FC0FE0
FC0FE0
FC0FE0
FC0FE0
FC0FE0
FC0FE0
FC0FE0
FC0FC0
FE1FC0
FF3FC0
FFFFC0
7FFF80
3FFF80
3FFF00
0FFC00
03F800
03F000
03F000
03F000
03F000
03F000
03F000
03F000
03F000
03F000
000000
000000
000000
01F000
03F800
07F800
07F800
07F800
03F000
01F000
ENDCHAR
STARTCHAR 1EF5
ENCODING 7925
SWIDTH 514 0
DWIDTH 20 0
BBX 18 29 2 -10
BITMAP
FC1F80
FC1F80
FC1F80
FC1F80
FC1F80
FC1F80
FC1F80
FC1F80
FC1F80
FC1F80
FC1F80
FC1F80
FC1F80
FE7F80
FFFF00
7FFF00
3FFE00
1FFC00
0FF000
07E000
07E000
07E200
07EF80
07FFC0
07FFC0
07FFC0
07FFC0
001FC0
000F80
ENDCHAR
STARTCHAR 1EF6
ENCODING 7926
SWIDTH 565 0
DWIDTH 22 0
BBX 19 37 2 0
BITMAP
01F000
03F000
073800
031800
003800
00F000
00E000
00C000
000000
000000
FC0FE0
FC0FE0
FC0FE0
FC0FE0
FC0FE0
FC0FE0
FC0FE0
FC0FE0
FC0FE0
FC0FC0
FE1FC0
FF3FC0
FFFFC0
7FFF80
3FFF80
3FFF00
0FFC00
03F800
03F000
03F000
03F000
03F000
03F000
03F000
03F000
03F000
03F000
ENDCHAR
STARTCHAR 1EF7
ENCODING 7927
SWIDTH 514 0
DWIDTH 20 0
BBX 17 38 2 -8
BITMAP
01C000
03E000
07F000
063000
003000
01F000
01E000
018000
018000
000000
000000
FC1F80
FC1F80
FC1F80
FC1F80
FC1F80
FC1F80
FC1F80
FC1F80
FC1F80
FC1F80
FC1F80
FC1F80
FC1F80
FE7F80
FFFF00
7FFF00
3FFE00
1FFC00
0FF000
07E000
07E000
07E000
07E000
07E000
07E000
07E000
07E000
ENDCHAR
STARTCHAR 1EF8
ENCODING 7928
SWIDTH 565 0
DWIDTH 22 0
BBX 19 36 2 0
BITMAP
000600
07CE00
0FFC00
0FFC00
1C3800
000000
000000
000000
000000
FC0FE0
FC0FE0
FC0FE0
FC0FE0
FC0FE0
FC0FE0
FC0FE0
FC0FE0
FC0FE0
FC0FC0
FE1FC0
FF3FC0
FFFFC0
7FFF80
3FFF80
3FFF00
0FFC00
03F800
03F000
03F000
03F000
03F000
03F000
03F000
03F000
03F000
03F000
ENDCHAR
STARTCHAR 1EF9
ENCODING 7929
SWIDTH 514 0
DWIDTH 20 0
BBX 17 36 2 -8
BITMAP
000E00
070C00
0FFC00
1FF800
18F000
180000
000000
000000
000000
FC1F80
FC1F80
FC1F80
FC1F80
FC1F80
FC1F80
FC1F80
FC1F80
FC1F80
FC1F80
FC1F80
FC1F80
FC1F80
FE7F80
FFFF00
7FFF00
3FFE00
1FFC00
0FF000
07E000
07E000
07E000
07E000
07E000
07E000
07E000
07E000
ENDCHAR
STARTCHAR 2010
ENCODING 8208
SWIDTH 308 0
DWIDTH 12 0
BBX 11 5 1 7
BITMAP
FFE0
FFE0
FFE0
FFE0
FFE0
ENDCHAR
STARTCHAR 2013
ENCODING 8211
SWIDTH 488 0
DWIDTH 19 0
BBX 19 5 0 7
BITMAP
FFFFE0
FFFFE0
FFFFE0
FFFFE0
FFFFE0
ENDCHAR
STARTCHAR 2014
ENCODING 8212
SWIDTH 977 0
DWIDTH 38 0
BBX 39 5 0 7
BITMAP
FFFFFFFFFE
FFFFFFFFFE
FFFFFFFFFE
FFFFFFFFFE
FFFFFFFFFE
ENDCHAR
STARTCHAR 2018
ENCODING 8216
SWIDTH 257 0
DWIDTH 10 0
BBX 7 9 2 18
BITMAP
3E
3E
3C
3C
7C
7C
7C
7C
FC
ENDCHAR
STARTCHAR 2019
ENCODING 8217
SWIDTH 257 0
DWIDTH 10 0
BBX 6 9 3 18
BITMAP
7C
7C
78
F8
F8
F8
F0
F0
F0
ENDCHAR
STARTCHAR 201A
ENCODING 8218
SWIDTH 257 0
DWIDTH 10 0
BBX 7 9 2 -4
BITMAP
3E
7C
7C
7C
7C
78
78
78
F8
ENDCHAR
STARTCHAR 201C
ENCODING 8220
SWIDTH 462 0
DWIDTH 18 0
BBX 15 9 2 18
BITMAP
3E3E
3E3C
3C3C
3C3C
7C7C
7C7C
7C7C
7C7C
FCFC
ENDCHAR
STARTCHAR 201D
ENCODING 8221
SWIDTH 462 0
DWIDTH 18 0
BBX 14 9 3 18
BITMAP
7C7C
7C7C
78F8
F8F8
F8F8
F8F8
F0F0
F0F0
F0F0
ENDCHAR
STARTCHAR 201E
ENCODING 8222
SWIDTH 462 0
DWIDTH 18 0
BBX 15 9 2 -4
BITMAP
3E7E
7C7C
7C7C
7C7C
7C7C
7878
7878
7878
F8F8
ENDCHAR
STARTCHAR 2020
ENCODING 8224
SWIDTH 488 0
DWIDTH 19 0
BBX 17 29 1 -2
BITMAP
03F000
03F000
03F000
03F000
03F000
03F000
FFFF80
FFFF80
FFFF80
FFFF80
FFFF80
03F000
03F000
03F000
03F000
03F000
03F000
03F000
03F000
03F000
03F000
03F000
03F000
03F000
03F000
03F000
03F000
03F000
03F000
ENDCHAR
STARTCHAR 2021
ENCODING 8225
SWIDTH 488 0
DWIDTH 19 0
BBX 17 29 1 -2
BITMAP
03F000
03F000
03F000
03F000
03F000
03F000
FFFF80
FFFF80
FFFF80
FFFF80
FFFF80
03F000
03F000
03F000
03F000
03F000
FFFF80
FFFF80
FFFF80
FFFF80
FFFF80
03F000
03F000
03F000
03F000
03F000
03F000
03F000
03F000
ENDCHAR
STARTCHAR 2022
ENCODING 8226
SWIDTH 565 0
DWIDTH 22 0
BBX 11 11 6 9
BITMAP
1F00
3F80
7FC0
FFE0
FFE0
FFE0
FFE0
FFE0
7FC0
7F80
1F00
ENDCHAR
STARTCHAR 2026
ENCODING 8230
SWIDTH 977 0
DWIDTH 38 0
BBX 33 8 3 -1
BITMAP
7C03E01F00
FE07F03F80
FE07F03F80
FE07F03F80
FE07F03F80
FE07F03F80
7C03E01F00
1000800400
ENDCHAR
STARTCHAR 2030
ENCODING 8240
SWIDTH 1260 0
DWIDTH 49 0
BBX 47 27 1 0
BITMAP
0FC003C00000
1FF007800000
3FF807800000
7FFC0F000000
7C7C1F000000
F83C1E000000
F83C3C000000
F83C3C000000
783C78000000
7EFCF0000000
7FF8F0000000
3FF9E0000000
1FF3E0000000
0783C3E007E0
00078FF80FF0
00079FFC1FF8
000F1FFE3FFC
001E3E3E7E7E
001E3C1E7C3E
003C3C1F781E
007C3C1F781E
00783C1F7C3E
00F03F3E7E7E
00F01FFE3FFC
01E01FFC1FF8
03E00FF80FF0
03C003E007E0
ENDCHAR
STARTCHAR 2039
ENCODING 8249
SWIDTH 334 0
DWIDTH 13 0
BBX 9 13 2 3
BITMAP
0780
0F00
1F00
3E00
3C00
7800
F800
7C00
3C00
1E00
1F00
0F80
0780
ENDCHAR
STARTCHAR 203A
ENCODING 8250
SWIDTH 334 0
DWIDTH 13 0
BBX 9 13 2 3
BITMAP
F000
7800
3C00
3E00
1F00
0F00
0780
0F00
1E00
3E00
7C00
7800
F000
ENDCHAR
STARTCHAR 2044
ENCODING 8260
SWIDTH 154 0
DWIDTH 6 0
BBX 19 27 -6 0
BITMAP
0001E0
0003C0
000380
000780
000F00
000F00
001E00
001E00
003C00
003800
007800
00F000
00F000
01E000
01E000
03C000
038000
078000
0F0000
0F0000
1E0000
1E0000
3C0000
780000
780000
F00000
F00000
ENDCHAR
STARTCHAR 20A3
ENCODING 8355
SWIDTH 822 0
DWIDTH 32 0
BBX 30 27 2 0
BITMAP
07FC0000
1FFC0000
3FFC0000
7FFC0000
7FFC0000
FFFC0000
FF000000
FE000000
FE003E7C
FE003EFC
FE003FFC
FFFC3FFC
FFFC3FFC
FFFC3FFC
FFFC3FC0
FFFC3F80
FFFC3F00
FE003F00
FE003F00
FE003E00
FE003E00
FE003E00
FE003E00
FE003E00
FE003E00
FE003E00
FE003E00
ENDCHAR
STARTCHAR 20AB
ENCODING 8363
SWIDTH 411 0
DWIDTH 16 0
BBX 15 26 1 2
BITMAP
003C
003C
03FE
03FE
003C
003C
0FBC
3FBC
7FBC
7FBC
FFBC
F83C
F03C
F03C
F07C
F87C
FFF8
7FF8
3FF0
1FE0
0780
0000
0000
3FF8
3FF8
3FF8
ENDCHAR
STARTCHAR 2122
ENCODING 8482
SWIDTH 822 0
DWIDTH 32 0
BBX 24 11 4 17
BITMAP
FF9E0F
FF9F1F
FF9F1F
1C1FBF
1C1DB7
1C1DB7
1C1DF7
1C1CE7
1C1CE7
1C1CE7
1C1C47
ENDCHAR
STARTCHAR 2126
ENCODING 8486
SWIDTH 797 0
DWIDTH 31 0
BBX 29 29 1 0
BITMAP
000F8000
00FFF800
03FFFE00
07FFFF00
0FFFFF80
1FFFFFC0
1FFCFFE0
3FE03FE0
3FC01FE0
7F800FF0
7F800FF0
7F8007F0
7F0007F0
7F0007F0
7F0007F0
7F0007F0
7F0007F0
3F800FE0
3F800FE0
1FC00FE0
1FC01FC0
0FE03F80
07F07F00
FFF07FF8
FFF07FF8
FFF07FF8
FFF07FF8
FFF07FF8
FFF07FF8
ENDCHAR
STARTCHAR 2202
ENCODING 8706
SWIDTH 540 0
DWIDTH 21 0
BBX 19 26 1 0
BITMAP
00F800
03FE00
07F700
0FE380
0783C0
0303C0
0003C0
0003E0
0003E0
0003E0
0FE3E0
1FB3E0
3E0BE0
7E0FE0
7C0FE0
7C0FE0
FC0FE0
FC0FC0
F80FC0
F80FC0
F80F80
781F00
781F00
3C1E00
1C3C00
0FF000
ENDCHAR
STARTCHAR 2206
ENCODING 8710
SWIDTH 694 0
DWIDTH 27 0
BBX 28 28 0 0
BITMAP
003FC000
003FC000
007FE000
007FE000
007FE000
00FFF000
00FFF000
01FFF000
01FFF800
01FBF800
03F9FC00
03F9FC00
03F1FC00
07F0FE00
07F0FE00
07E07E00
0FE07F00
0FE07F00
1FC03F00
1FC03F80
1FC03F80
3F801FC0
3F801FC0
3FFFFFC0
7FFFFFE0
7FFFFFE0
7FFFFFE0
FFFFFFF0
ENDCHAR
STARTCHAR 220F
ENCODING 8719
SWIDTH 797 0
DWIDTH 31 0
BBX 25 35 3 -7
BITMAP
FFFFFF80
FFFFFF80
FFFFFF80
FFFFFF80
FFFFFF80
FFFFFF80
FE003F80
FE003F80
FE003F80
FE003F80
FE003F80
FE003F80
FE003F80
FE003F80
FE003F80
FE003F80
FE003F80
FE003F80
FE003F80
FE003F80
FE003F80
FE003F80
FE003F80
FE003F80
FE003F80
FE003F80
FE003F80
FE003F80
FE003F80
FE003F80
FE003F80
FE003F80
FE003F80
FE003F80
FE003F80
ENDCHAR
STARTCHAR 2211
ENCODING 8721
SWIDTH 720 0
DWIDTH 28 0
BBX 27 35 1 -7
BITMAP
FFFFFFC0
FFFFFFC0
FFFFFFC0
FFFFFFC0
FFFFFFC0
7FFFFFC0
3FE00000
1FF00000
0FF80000
07F80000
03FC0000
01FE0000
00FF0000
007F8000
003FC000
001FE000
000FF000
0007F800
000FF000
001FE000
003FC000
007F8000
00FF0000
00FF0000
01FE0000
03FC0000
07F80000
0FF00000
1FE00000
3FC00000
7FFFFFE0
FFFFFFE0
FFFFFFE0
FFFFFFE0
FFFFFFE0
ENDCHAR
STARTCHAR 2212
ENCODING 8722
SWIDTH 822 0
DWIDTH 32 0
BBX 23 5 5 9
BITMAP
FFFFFE
FFFFFE
FFFFFE
FFFFFE
FFFFFE
ENDCHAR
STARTCHAR 2219
ENCODING 8729
SWIDTH 257 0
DWIDTH 10 0
BBX 7 8 2 10
BITMAP
38
7C
FE
FE
FE
FE
FE
38
ENDCHAR
STARTCHAR 221A
ENCODING 8730
SWIDTH 642 0
DWIDTH 25 0
BBX 25 34 1 -1
BITMAP
00000780
00000780
00000F80
00000E00
00001E00
00001C00
00001C00
00003C00
00003800
00003800
00007800
00007000
0000F000
0000E000
0300E000
1F01E000
FF01C000
7F81C000
4F83C000
07838000
07C38000
07C78000
03C70000
03EF0000
03EE0000
01EE0000
01FE0000
01FC0000
00FC0000
00FC0000
00780000
00780000
00700000
00300000
ENDCHAR
STARTCHAR 221E
ENCODING 8734
SWIDTH 822 0
DWIDTH 32 0
BBX 25 16 4 4
BITMAP
04002000
3F81FC00
7FC3FE00
7FE7FE00
FFF7FF00
F0FFC700
E07F0380
C03E0380
C03E0380
C07C0380
E0FE0380
F1FF8700
7FF7FF00
7FE3FF00
3FC1FE00
1F80FC00
ENDCHAR
STARTCHAR 222B
ENCODING 8747
SWIDTH 591 0
DWIDTH 23 0
BBX 22 37 1 -7
BITMAP
000040
0007F8
000FF8
001E7C
001E7C
003C78
003C30
003C00
007C00
007C00
007C00
007C00
007C00
007C00
00FC00
00FC00
00FC00
00F800
00F800
00F800
00F800
00F800
00F800
00F800
00F800
00F800
00F800
00F800
00F800
00F000
01F000
79F000
F9E000
F9E000
FBC000
7F8000
3E0000
ENDCHAR
STARTCHAR 2248
ENCODING 8776
SWIDTH 822 0
DWIDTH 32 0
BBX 26 15 3 4
BITMAP
0FF000C0
3FFF03C0
FFFFFFC0
FFFFFFC0
FC7FFF80
E007FF00
C0007800
00000000
07E00040
3FFE01C0
7FFFFFC0
FFFFFFC0
FFFFFFC0
F007FF00
C000FC00
ENDCHAR
STARTCHAR 2260
ENCODING 8800
SWIDTH 822 0
DWIDTH 32 0
BBX 23 25 5 -1
BITMAP
000040
000060
0000F0
0001F0
0003F0
0007E0
FFFFFE
FFFFFE
FFFFFE
FFFFFE
003E00
007C00
00FC00
01F800
01F000
FFFFFE
FFFFFE
FFFFFE
FFFFFE
1F8000
3F0000
3E0000
3C0000
180000
080000
ENDCHAR
STARTCHAR 2264
ENCODING 8804
SWIDTH 822 0
DWIDTH 32 0
BBX 23 24 5 0
BITMAP
000006
00003E
0001FE
000FFE
007FFE
03FFF0
3FFF80
FFF800
FFC000
FF8000
FFF000
7FFE00
0FFFC0
01FFFC
003FFE
0003FE
00007E
00000E
000000
000000
FFFFFE
FFFFFE
FFFFFE
FFFFFE
ENDCHAR
STARTCHAR 2265
ENCODING 8805
SWIDTH 822 0
DWIDTH 32 0
BBX 23 24 5 0
BITMAP
800000
F00000
FE0000
FFE000
FFFC00
1FFF80
03FFF0
007FFE
000FFE
0003FE
003FFE
01FFF8
0FFFC0
7FFE00
FFF000
FF8000
FC0000
E00000
000000
000000
FFFFFE
FFFFFE
FFFFFE
FFFFFE
ENDCHAR
STARTCHAR 22F2
ENCODING 8946
SWIDTH 822 0
DWIDTH 32 0
BBX 26 15 3 4
BITMAP
0FF000C0
3FFF03C0
FFFFFFC0
FFFFFFC0
FC7FFF80
E007FF00
C0007800
00000000
07E00040
3FFE01C0
7FFFFFC0
FFFFFFC0
FFFFFFC0
F007FF00
C000FC00
ENDCHAR
STARTCHAR 255F
ENCODING 9567
SWIDTH 617 0
DWIDTH 24 0
BBX 21 28 2 0
BITMAP
00F000
07FE00
0FFF80
1FFFC0
3FFFC0
7FFFE0
7FFFF0
FF0FF0
FE07F0
FE03F0
FE03F0
FE03F8
FEFFF8
FEFFF8
FEFFF8
FEFFF8
FEFFF8
FEFFF8
FE03F8
FE03F8
FE03F8
FE03F8
FE03F8
FE03F8
FE03F8
FE03F8
FE03F8
FE03F8
ENDCHAR
STARTCHAR 2560
ENCODING 9568
SWIDTH 514 0
DWIDTH 20 0
BBX 18 27 1 0
BITMAP
003FC0
01FFC0
03FFC0
0FFFC0
1FFFC0
1FFFC0
3FF000
7FC000
7F8000
7F0000
FFFFC0
FFFFC0
FFFFC0
FFFFC0
FFFFC0
FFFFC0
FF0000
7F0000
7F8000
7FC000
3FF800
1FFFC0
0FFFC0
07FFC0
03FFC0
00FFC0
001FC0
ENDCHAR
STARTCHAR 2561
ENCODING 9569
SWIDTH 257 0
DWIDTH 10 0
BBX 7 27 2 0
BITMAP
FE
FE
FE
FE
FE
FE
FE
FE
FE
FE
FE
FE
FE
FE
FE
FE
FE
FE
FE
FE
FE
FE
FE
FE
FE
FE
FE
ENDCHAR
STARTCHAR 2562
ENCODING 9570
SWIDTH 771 0
DWIDTH 30 0
BBX 28 28 1 0
BITMAP
000F0000
00FFF000
01FFFC00
07FFFE00
0FFFFF00
1FFFFF80
3FFFFFC0
3FF07FC0
7FC03FE0
7F801FE0
7F000FE0
FF0007F0
FE0007F0
FE0007F0
FE0007F0
FE0007F0
FE0007F0
FF000FF0
7F000FE0
7F801FE0
7FC03FE0
3FF0FFC0
1FFFFF80
1FFFFF80
0FFFFF00
07FFFE00
01FFF800
007FE000
ENDCHAR
STARTCHAR 2563
ENCODING 9571
SWIDTH 617 0
DWIDTH 24 0
BBX 20 27 2 0
BITMAP
FE03F0
FE03F0
FE03F0
FE03F0
FE03F0
FE03F0
FE03F0
FE03F0
FE03F0
FE03F0
FE03F0
FE03F0
FE03F0
FE03F0
FE03F0
FE03F0
FE03F0
FE03F0
FE07F0
FE07F0
FF8FF0
7FFFE0
7FFFE0
3FFFC0
1FFF80
0FFF00
07FE00
ENDCHAR
STARTCHAR 2564
ENCODING 9572
SWIDTH 565 0
DWIDTH 22 0
BBX 19 27 2 0
BITMAP
FC0FE0
FC0FE0
FC0FE0
FC0FE0
FC0FE0
FC0FE0
FC0FE0
FC0FE0
FC0FE0
FC0FC0
FE1FC0
FF3FC0
FFFFC0
7FFF80
3FFF80
3FFF00
0FFC00
03F800
03F000
03F000
03F000
03F000
03F000
03F000
03F000
03F000
03F000
ENDCHAR
STARTCHAR 2565
ENCODING 9573
SWIDTH 540 0
DWIDTH 21 0
BBX 19 20 1 0
BITMAP
00E000
07FC00
1FFF00
3FFF80
3FFFC0
7FFFC0
7FFFE0
FE0FE0
FC07E0
FC07E0
FC07E0
FC07E0
FE07E0
FF07E0
7FF7E0
7FF7E0
3FF7E0
1FF7E0
0FF7E0
03F7E0
ENDCHAR
STARTCHAR 2566
ENCODING 9574
SWIDTH 540 0
DWIDTH 21 0
BBX 20 20 1 0
BITMAP
004000
07FC00
0FFF00
1FFF80
3FFFC0
7F0FC0
7E1FE0
FC3F80
FCFF00
FDFC00
FCF800
FC6180
FC43E0
FE07F0
7FFFE0
7FFFE0
3FFFC0
1FFF80
0FFF00
03FC00
ENDCHAR
STARTCHAR 2567
ENCODING 9575
SWIDTH 231 0
DWIDTH 9 0
BBX 7 28 1 0
BITMAP
3C
7E
FE
FE
FE
7E
3C
00
00
7E
7E
7E
7E
7E
7E
7E
7E
7E
7E
7E
7E
7E
7E
7E
7E
7E
7E
7E
ENDCHAR
STARTCHAR 2568
ENCODING 9576
SWIDTH 231 0
DWIDTH 9 0
BBX 6 19 2 0
BITMAP
FC
FC
FC
FC
FC
FC
FC
FC
FC
FC
FC
FC
FC
FC
FC
FC
FC
FC
FC
ENDCHAR
STARTCHAR 2569
ENCODING 9577
SWIDTH 540 0
DWIDTH 21 0
BBX 19 20 1 0
BITMAP
00E000
07FC00
0FFF00
1FFF80
3FFFC0
7FFFC0
7FBFE0
FE0FE0
FE07E0
FC07E0
FC07E0
FC07E0
FE07E0
FF0FE0
7FFFE0
7FFFC0
3FFF80
1FFF80
0FFE00
03FC00
ENDCHAR
STARTCHAR 256A
ENCODING 9578
SWIDTH 514 0
DWIDTH 20 0
BBX 17 19 2 0
BITMAP
FC1F80
FC1F80
FC1F80
FC1F80
FC1F80
FC1F80
FC1F80
FC1F80
FC1F80
FC1F80
FC1F80
FC1F80
FC1F80
FFFF80
FFFF00
7FFF00
3FFE00
1FFC00
0FF000
ENDCHAR
STARTCHAR 256B
ENCODING 9579
SWIDTH 514 0
DWIDTH 20 0
BBX 17 27 2 -8
BITMAP
FC1F80
FC1F80
FC1F80
FC1F80
FC1F80
FC1F80
FC1F80
FC1F80
FC1F80
FC1F80
FC1F80
FC1F80
FC1F80
FE7F80
FFFF00
7FFF00
3FFE00
1FFC00
0FF000
07E000
07E000
07E000
07E000
07E000
07E000
07E000
07E000
ENDCHAR
STARTCHAR 25CA
ENCODING 9674
SWIDTH 488 0
DWIDTH 19 0
BBX 19 40 0 -9
BITMAP
004000
006000
00E000
00E000
01B000
01B000
039800
031800
070C00
060C00
0E0600
0C0600
0C0700
180300
180380
300180
3001C0
6000C0
6000E0
C00060
E00060
6000C0
7000C0
300180
380180
180300
180300
0C0700
0C0600
060E00
060C00
031C00
031800
01B800
01B000
01F000
00E000
00E000
004000
004000
ENDCHAR
STARTCHAR 25CB
ENCODING 9675
SWIDTH 617 0
DWIDTH 24 0
BBX 11 15 7 29
BITMAP
0F80
1F00
1E00
3C00
3800
7800
7000
0000
1F00
3F00
3F80
7B80
73C0
E1C0
C0E0
ENDCHAR
STARTCHAR 25CF
ENCODING 9679
SWIDTH 617 0
DWIDTH 24 0
BBX 11 15 7 29
BITMAP
3C00
3E00
1E00
0F00
0780
0380
01C0
0000
1F00
3F00
3F80
7B80
73C0
E1C0
C0E0
ENDCHAR
STARTCHAR 25D8
ENCODING 9688
SWIDTH 617 0
DWIDTH 24 0
BBX 14 15 7 29
BITMAP
0070
00F8
01FC
018C
000C
003C
0078
0070
1F60
3F00
3F80
7B80
73C0
E1C0
C0E0
ENDCHAR
STARTCHAR 25D9
ENCODING 9689
SWIDTH 617 0
DWIDTH 24 0
BBX 12 13 7 29
BITMAP
0030
3FF0
7FE0
7FE0
E000
0000
1F00
3F00
3F80
7B80
73C0
E1C0
C0E0
ENDCHAR
STARTCHAR F000
ENCODING 61440
SWIDTH 771 0
DWIDTH 30 0
BBX 27 32 2 -1
BITMAP
00001000
00007000
0000F000
0001F000
0003E000
0003E000
0003C000
00030000
07F0FE00
1FFFFF80
3FFFFFC0
3FFFFF80
7FFFFF00
7FFFFE00
FFFFFE00
FFFFFC00
FFFFFC00
FFFFFC00
FFFFFC00
FFFFFE00
7FFFFE00
7FFFFF00
7FFFFF80
7FFFFFE0
3FFFFFC0
3FFFFFC0
1FFFFF80
0FFFFF00
0FFFFF00
07FFFE00
03F9FC00
00C03000
ENDCHAR
STARTCHAR F001
ENCODING 61441
SWIDTH 565 0
DWIDTH 22 0
BBX 19 28 2 0
BITMAP
000780
0FCFC0
3FCFE0
7FCFE0
7FCFE0
FFCFC0
FF0780
FC0000
FC0000
FFCFC0
FFCFC0
FFCFC0
FFCFC0
FFCFC0
FC0FC0
FC0FC0
FC0FC0
FC0FC0
FC0FC0
FC0FC0
FC0FC0
FC0FC0
FC0FC0
FC0FC0
FC0FC0
FC0FC0
FC0FC0
FC0FC0
ENDCHAR
STARTCHAR F002
ENCODING 61442
SWIDTH 565 0
DWIDTH 22 0
BBX 18 27 2 0
BITMAP
0FCFC0
3FCFC0
7FCFC0
7FCFC0
FFCFC0
FF0FC0
FC0FC0
FC0FC0
FFCFC0
FFCFC0
FFCFC0
FFCFC0
FFCFC0
FC0FC0
FC0FC0
FC0FC0
FC0FC0
FC0FC0
FC0FC0
FC0FC0
FC0FC0
FC0FC0
FC0FC0
FC0FC0
FC0FC0
FC0FC0
FC0FC0
ENDCHAR
ENDFONT
